<?xml version="1.0" standalone="no"?>
<!DOCTYPE svg PUBLIC "-//W3C//DTD SVG 20010904//EN"
 "http://www.w3.org/TR/2001/REC-SVG-20010904/DTD/svg10.dtd">
<svg version="1.0" xmlns="http://www.w3.org/2000/svg"
 width="340.000000pt" height="270.000000pt" viewBox="0 0 340.000000 270.000000"
 preserveAspectRatio="xMidYMid meet">
<metadata>
Created by potrace 1.15, written by Peter Selinger 2001-2017
</metadata>
<g transform="translate(0.000000,270.000000) scale(0.100000,-0.100000)"
fill="#000000" stroke="none">
<path d="M1726 1781 c-51 -6 -71 -25 -38 -35 38 -12 56 -81 39 -148 l-7 -27
35 15 c20 8 56 16 80 18 65 5 95 28 95 74 0 44 -20 76 -60 97 -30 15 -57 16
-144 6z"/>
<path d="M1564 1736 c-18 -8 -35 -19 -38 -25 -4 -6 14 -33 39 -60 56 -60 73
-107 43 -116 -11 -4 -22 -4 -25 -1 -4 3 -1 6 5 6 24 0 11 48 -24 86 -19 21
-44 49 -56 62 -28 30 -57 28 -119 -10 l-52 -33 32 -6 c56 -12 101 -69 101
-130 0 -31 1 -31 19 -15 40 37 71 36 171 -4 l95 -38 6 -51 c9 -66 15 -81 34
-81 20 0 21 90 0 130 -17 34 -36 45 -108 68 -36 11 -46 17 -32 20 31 7 44 21
56 65 29 107 -47 176 -147 133z"/>
<path d="M2118 1663 c-33 -2 -61 -10 -68 -18 -10 -12 -9 -15 3 -15 43 0 69
-83 48 -155 l-8 -30 57 1 c36 1 66 7 81 17 13 10 31 17 41 17 29 0 51 44 43
87 -4 21 -12 44 -18 51 -16 20 -84 52 -104 50 -10 -1 -44 -3 -75 -5z"/>
<path d="M1923 1616 c-18 -8 -33 -19 -33 -23 0 -15 40 -73 50 -73 16 0 50 -62
50 -92 0 -36 28 -37 66 -4 24 20 28 33 32 87 4 58 2 66 -21 88 -32 29 -99 37
-144 17z"/>
<path d="M1156 1599 c-29 -23 -30 -27 -16 -49 7 -12 12 -12 22 -2 6 6 30 12
51 12 31 0 46 -7 73 -34 21 -21 34 -44 34 -59 0 -32 19 -39 45 -18 18 15 19
15 7 -1 -12 -15 -10 -19 16 -32 45 -23 76 -79 67 -123 -6 -34 -5 -35 17 -29
13 3 26 6 31 6 12 0 8 89 -7 125 -14 33 -59 65 -91 65 -10 0 -15 10 -15 33 0
47 -15 62 -97 97 -85 36 -102 37 -137 9z"/>
<path d="M2915 1588 c-8 -13 -12 -24 -8 -25 5 0 21 -4 36 -7 20 -5 33 -17 44
-43 27 -65 2 -132 -57 -155 l-25 -10 25 -10 c56 -21 130 28 130 88 0 22 -48
154 -62 171 -17 21 -65 16 -83 -9z"/>
<path d="M1788 1584 c-13 -8 -40 -22 -60 -31 l-37 -18 46 -15 c39 -12 51 -23
71 -60 19 -37 23 -55 18 -99 l-5 -53 22 19 c35 32 55 39 23 9 -25 -24 -27 -29
-14 -42 11 -11 20 -12 46 -3 43 15 93 -3 132 -47 43 -49 43 -113 0 -156 -17
-17 -29 -32 -27 -35 3 -2 21 -7 41 -10 63 -10 106 48 106 142 0 46 -4 60 -24
80 -34 34 -160 95 -198 96 -18 0 -26 3 -18 6 54 17 62 27 57 65 -4 26 -20 55
-57 97 -54 63 -85 76 -122 55z"/>
<path d="M1173 1542 c-9 -6 -9 -17 2 -47 8 -22 14 -48 15 -59 0 -15 3 -16 15
-6 9 7 22 9 32 5 10 -5 24 -7 32 -6 7 1 10 -2 6 -8 -7 -12 32 -72 88 -136 35
-40 35 -40 56 -21 12 11 21 31 21 47 0 50 -76 119 -132 119 -16 0 -19 3 -10 9
20 12 4 57 -30 86 -29 25 -71 32 -95 17z"/>
<path d="M2702 1538 c-21 -11 -19 -12 30 -32 70 -28 101 -73 96 -138 -3 -45
-2 -47 17 -34 53 35 49 144 -7 191 -32 27 -94 33 -136 13z"/>
<path d="M930 1522 c0 -13 113 -145 127 -149 6 -3 21 5 33 17 28 28 20 54 -30
103 -34 32 -46 37 -85 37 -25 0 -45 -4 -45 -8z"/>
<path d="M1493 1486 c-23 -20 -25 -26 -14 -40 10 -11 18 -13 31 -6 71 38 160
-26 160 -115 0 -40 20 -46 56 -17 18 16 21 26 16 71 l-5 53 -80 39 c-94 45
-125 48 -164 15z"/>
<path d="M2600 1503 c-30 -2 -66 -6 -79 -9 l-25 -5 31 -25 c53 -41 62 -108 27
-198 -6 -16 -4 -17 15 -7 16 9 31 9 59 0 33 -10 43 -8 77 10 22 12 48 21 57
21 10 0 25 11 34 25 21 32 14 107 -12 137 -22 24 -92 58 -114 56 -8 -1 -40 -3
-70 -5z"/>
<path d="M852 1474 c-79 -24 -142 -76 -142 -118 0 -11 9 -13 40 -9 36 5 40 4
40 -17 0 -15 -9 -25 -30 -33 -17 -6 -29 -16 -27 -22 2 -5 32 -25 67 -44 l64
-34 63 33 c61 31 76 52 55 76 -5 5 -24 46 -42 92 -18 45 -35 84 -39 86 -3 1
-25 -3 -49 -10z"/>
<path d="M2395 1471 c-16 -4 -40 -13 -53 -20 l-23 -12 23 -37 c12 -20 32 -45
44 -54 30 -24 47 -71 42 -113 -4 -34 -3 -36 21 -30 68 17 101 68 101 155 0 44
-5 56 -29 81 -16 16 -38 29 -49 29 -11 0 -26 2 -34 4 -7 2 -26 1 -43 -3z"/>
<path d="M2183 1420 c-32 -15 -65 -30 -73 -33 -12 -4 -11 -6 5 -12 64 -23 77
-30 94 -54 30 -42 42 -98 30 -149 -5 -25 -7 -47 -4 -50 12 -12 122 33 149 61
24 25 27 36 23 69 -3 22 -20 58 -39 84 -18 24 -41 55 -50 68 -32 44 -69 48
-135 16z"/>
<path d="M1522 1431 c-11 -6 -11 -16 -3 -47 6 -22 11 -54 11 -72 0 -24 3 -31
13 -25 6 4 32 8 57 8 l45 0 3 41 c3 36 -1 45 -33 73 -35 31 -68 39 -93 22z"/>
<path d="M1205 1380 c-11 -4 -38 -13 -61 -19 -44 -12 -108 -66 -116 -99 -5
-18 -1 -20 36 -19 35 2 41 -1 44 -20 2 -17 -5 -24 -32 -34 -34 -12 -35 -14
-19 -31 9 -10 40 -31 68 -46 58 -31 79 -29 158 18 37 22 45 38 28 56 -5 5 -21
42 -35 82 -38 106 -47 121 -71 112z"/>
<path d="M1972 1383 c-7 -3 33 -26 90 -52 l103 -47 3 -82 c2 -47 -2 -91 -8
-103 -17 -31 -4 -36 24 -9 30 27 48 102 37 151 -14 62 -37 85 -120 118 -75 30
-102 35 -129 24z"/>
<path d="M595 1285 c-82 -30 -158 -54 -168 -54 -11 -1 -30 8 -44 19 -14 11
-41 20 -59 20 -47 0 -74 -29 -74 -80 0 -111 93 -159 166 -86 37 37 46 80 17
74 -10 -2 -19 -13 -21 -25 -8 -56 -80 -74 -119 -29 -29 34 -29 70 -2 97 24 24
61 20 95 -12 11 -10 25 -19 30 -19 24 0 358 128 362 138 7 21 -28 12 -183 -43z"/>
<path d="M1731 1304 l-23 -16 30 -18 c47 -29 77 -79 77 -129 0 -37 -5 -47 -34
-72 l-34 -28 27 -7 c61 -15 106 40 106 128 0 97 -90 183 -149 142z"/>
<path d="M1537 1276 c-9 -7 -44 -19 -75 -25 -44 -8 -66 -19 -88 -43 l-29 -31
45 26 c25 14 65 29 90 33 25 4 53 11 63 16 27 14 40 -8 82 -134 20 -60 40
-108 43 -108 11 1 52 37 52 46 0 11 -152 234 -159 234 -3 0 -14 -7 -24 -14z"/>
<path d="M1621 1243 c30 -50 73 -111 103 -148 l25 -29 26 24 c43 40 28 99 -40
159 -30 26 -44 31 -86 31 l-51 0 23 -37z"/>
<path d="M1886 1272 c-3 -5 0 -26 5 -48 6 -21 9 -59 7 -85 l-5 -47 42 -6 c48
-8 89 5 99 29 3 9 6 36 6 60 0 38 -5 47 -37 74 -27 22 -48 31 -75 31 -20 0
-39 -4 -42 -8z"/>
<path d="M898 1183 l-177 -54 -38 25 c-64 44 -123 32 -143 -28 -20 -60 10
-129 67 -152 56 -24 115 12 137 84 6 18 4 22 -13 22 -12 0 -21 -6 -21 -14 0
-30 -41 -66 -75 -66 -64 0 -99 86 -54 131 25 25 62 19 100 -18 l27 -25 183 58
c188 59 213 70 203 85 -7 12 8 15 -196 -48z"/>
<path d="M1495 1225 c-68 -16 -106 -38 -144 -80 -44 -50 -41 -64 12 -58 34 4
45 2 50 -11 10 -26 -2 -44 -34 -51 -16 -4 -31 -10 -34 -14 -7 -12 44 -55 101
-85 l50 -27 56 21 c73 27 113 57 98 75 -6 7 -27 64 -48 126 -20 62 -41 114
-47 115 -5 1 -32 -4 -60 -11z"/>
<path d="M1171 1027 c-163 -41 -206 -48 -220 -39 -53 39 -79 52 -106 52 -96 0
-125 -138 -45 -215 57 -55 140 -34 180 45 25 49 25 50 -1 50 -13 0 -25 -11
-34 -35 -37 -86 -146 -69 -161 26 -4 26 0 41 16 62 31 39 72 37 117 -8 l35
-35 222 58 c169 45 222 62 224 75 4 22 10 23 -227 -36z"/>
</g>
</svg>
