<?xml version="1.0" standalone="no"?>
<!DOCTYPE svg PUBLIC "-//W3C//DTD SVG 20010904//EN"
 "http://www.w3.org/TR/2001/REC-SVG-20010904/DTD/svg10.dtd">
<svg version="1.0" xmlns="http://www.w3.org/2000/svg"
 width="225.000000pt" height="225.000000pt" viewBox="0 0 225.000000 225.000000"
 preserveAspectRatio="xMidYMid meet">
<metadata>
Created by potrace 1.15, written by Peter Selinger 2001-2017
</metadata>
<g transform="translate(0.000000,225.000000) scale(0.100000,-0.100000)"
fill="#000000" stroke="none">
<path d="M1835 2218 c-86 -30 -129 -94 -144 -213 l-9 -78 -144 -144 c-129
-130 -146 -143 -178 -143 -80 0 -140 -32 -264 -140 -76 -66 -224 -147 -331
-179 -38 -12 -112 -28 -165 -37 -200 -31 -305 -79 -416 -189 -184 -183 -233
-468 -124 -710 131 -290 468 -433 774 -327 104 36 179 86 258 172 80 86 122
171 159 321 60 245 126 371 289 559 36 41 76 89 88 107 l23 32 -58 3 -58 3
206 203 207 204 77 9 c95 12 146 37 185 90 73 101 38 240 -74 300 -25 13 -46
29 -46 34 0 6 -12 28 -26 49 -46 67 -151 101 -229 74z m146 -104 c16 -15 29
-31 29 -34 0 -3 -20 -16 -45 -28 -56 -27 -81 -62 -65 -91 15 -28 31 -26 87 9
61 39 94 39 138 -2 45 -41 55 -90 30 -142 -22 -45 -58 -65 -133 -72 -108 -10
-114 -14 -338 -235 -116 -115 -218 -209 -227 -209 -14 0 -17 11 -17 60 0 33
-4 60 -9 60 -5 0 -27 -7 -50 -15 -22 -8 -41 -10 -41 -6 0 43 39 93 215 271
204 207 209 214 220 323 3 33 12 71 20 86 33 64 132 77 186 25z m-691 -580 c0
-4 -16 -61 -36 -126 -19 -66 -34 -122 -31 -124 2 -2 30 5 62 16 32 11 62 20
67 20 4 0 8 -34 8 -75 l0 -74 59 -3 59 -3 -59 -72 c-117 -146 -193 -303 -240
-503 -40 -165 -76 -237 -164 -325 -136 -137 -312 -189 -500 -150 -188 40 -343
178 -407 363 -30 88 -32 249 -4 332 30 89 74 164 129 220 100 103 200 149 372
174 123 18 245 56 350 108 98 50 139 77 239 162 71 61 96 76 96 60z"/>
<path d="M405 1080 c-61 -25 -91 -109 -61 -168 23 -45 53 -62 109 -62 42 0 54
5 83 34 28 28 34 42 34 75 0 23 -7 56 -16 72 -24 47 -97 71 -149 49z"/>
<path d="M1055 698 c-59 -177 -61 -192 -25 -201 36 -9 57 21 86 127 9 34 10
55 3 68 -11 20 -57 25 -64 6z"/>
<path d="M890 395 c-75 -68 -179 -126 -265 -147 -27 -7 -56 -16 -62 -21 -18
-13 -16 -42 3 -58 55 -46 379 121 433 224 13 24 12 29 -4 47 -10 11 -22 20
-27 20 -4 0 -40 -29 -78 -65z"/>
</g>
</svg>
