<?xml version="1.0" standalone="no"?>
<!DOCTYPE svg PUBLIC "-//W3C//DTD SVG 20010904//EN"
 "http://www.w3.org/TR/2001/REC-SVG-20010904/DTD/svg10.dtd">
<svg version="1.0" xmlns="http://www.w3.org/2000/svg"
 width="192.000000pt" height="262.000000pt" viewBox="0 0 192.000000 262.000000"
 preserveAspectRatio="xMidYMid meet">
<metadata>
Created by potrace 1.15, written by Peter Selinger 2001-2017
</metadata>
<g transform="translate(0.000000,262.000000) scale(0.100000,-0.100000)"
fill="#000000" stroke="none">
<path d="M977 2303 c-83 -160 -160 -420 -232 -773 -19 -96 -35 -186 -35 -200
0 -38 -13 -15 -66 120 -65 167 -178 394 -253 508 -33 50 -62 92 -64 92 -2 0 1
-30 6 -67 5 -38 7 -149 4 -248 -6 -195 -18 -264 -92 -515 -46 -154 -57 -304
-31 -410 21 -87 128 -300 175 -347 59 -62 161 -100 306 -117 l50 -6 -50 19
c-91 33 -131 59 -190 123 -155 168 -185 280 -120 458 76 209 79 223 80 398 l0
164 92 -187 c50 -102 108 -227 129 -277 l38 -90 33 186 c39 223 99 492 155
694 40 147 65 215 51 137 -4 -22 -7 -130 -7 -240 1 -217 13 -304 60 -420 30
-74 93 -170 103 -159 4 5 22 52 40 104 44 131 132 306 180 360 l40 45 -21 -60
c-19 -50 -22 -81 -22 -190 0 -150 21 -250 100 -483 44 -129 47 -143 48 -247 1
-104 -1 -113 -28 -163 -28 -50 -77 -102 -156 -165 -47 -37 -4 -17 70 33 121
82 199 194 236 340 12 49 15 93 12 180 -5 114 -5 116 -67 258 -91 212 -106
271 -105 422 0 108 4 136 27 205 33 99 96 208 177 303 l62 73 -54 -32 c-201
-122 -347 -280 -463 -500 l-53 -102 -31 96 c-17 53 -43 154 -58 224 -24 115
-27 149 -28 335 0 115 -1 208 -1 208 -1 0 -22 -39 -47 -87z"/>
</g>
</svg>
