<?xml version="1.0" standalone="no"?>
<!DOCTYPE svg PUBLIC "-//W3C//DTD SVG 20010904//EN"
 "http://www.w3.org/TR/2001/REC-SVG-20010904/DTD/svg10.dtd">
<svg version="1.0" xmlns="http://www.w3.org/2000/svg"
 width="225.000000pt" height="225.000000pt" viewBox="0 0 225.000000 225.000000"
 preserveAspectRatio="xMidYMid meet">
<metadata>
Created by potrace 1.15, written by Peter Selinger 2001-2017
</metadata>
<g transform="translate(0.000000,225.000000) scale(0.100000,-0.100000)"
fill="#000000" stroke="none">
<path d="M650 2244 c0 -1 28 -29 61 -61 174 -165 269 -342 269 -498 0 -56 -23
-163 -44 -202 -13 -25 -13 -25 -20 23 -9 70 -56 163 -104 206 -35 31 -129 88
-147 88 -2 0 -2 -39 1 -87 11 -169 -32 -289 -180 -508 -95 -139 -146 -232
-170 -313 -53 -180 -13 -425 96 -588 124 -185 358 -294 638 -297 148 -2 218
16 370 94 332 171 540 475 540 789 0 149 -40 282 -150 497 l-60 118 7 -160 c6
-172 -1 -231 -38 -310 -21 -46 -103 -145 -111 -135 -3 3 0 59 5 125 20 233
-18 494 -98 677 -107 248 -314 424 -580 495 -58 15 -285 53 -285 47z m394
-203 c169 -80 276 -187 357 -356 117 -245 140 -584 63 -944 -7 -32 -6 -33 17
-27 13 4 61 25 105 46 93 45 184 133 224 216 l24 48 9 -34 c5 -19 7 -80 4
-135 -8 -178 -79 -327 -221 -471 -137 -137 -299 -229 -471 -268 l-30 -7 36 30
c81 67 137 228 146 417 9 185 -19 304 -98 423 -38 57 -117 121 -166 136 -22 6
-22 6 -6 -40 20 -61 14 -147 -16 -208 -36 -75 -122 -159 -245 -241 -112 -74
-156 -117 -177 -173 -13 -34 -13 -126 0 -171 l10 -32 -27 20 c-134 104 -213
371 -168 563 21 89 49 143 172 327 107 162 143 235 174 355 17 70 18 70 30 40
35 -88 30 -217 -15 -372 -14 -48 -25 -93 -25 -100 0 -19 134 111 187 182 126
168 177 379 134 555 -15 63 -69 186 -101 230 -12 17 -18 30 -15 30 4 0 44 -17
89 -39z"/>
<path d="M1366 2092 c5 -5 41 -34 81 -65 114 -90 138 -130 173 -282 l23 -100
24 80 c33 109 34 188 2 245 -32 58 -81 85 -204 110 -111 23 -112 23 -99 12z"/>
</g>
</svg>
