<?xml version="1.0" standalone="no"?>
<!DOCTYPE svg PUBLIC "-//W3C//DTD SVG 20010904//EN"
 "http://www.w3.org/TR/2001/REC-SVG-20010904/DTD/svg10.dtd">
<svg version="1.0" xmlns="http://www.w3.org/2000/svg"
 width="512.000000pt" height="512.000000pt" viewBox="0 0 512.000000 512.000000"
 preserveAspectRatio="xMidYMid meet">
<metadata>
Created by potrace 1.15, written by Peter Selinger 2001-2017
</metadata>
<g transform="translate(0.000000,512.000000) scale(0.100000,-0.100000)"
fill="#000000" stroke="none">
<path d="M203 4958 c-174 -172 -196 -198 -191 -231 3 -19 32 5 192 163 103
102 192 193 197 203 8 14 5 17 -17 17 -21 0 -60 -33 -181 -152z"/>
<path d="M303 4858 c-140 -139 -264 -265 -275 -281 -10 -15 -18 -37 -16 -50 3
-18 49 23 292 263 158 157 292 293 297 303 8 14 5 17 -17 17 -22 0 -75 -47
-281 -252z"/>
<path d="M402 4758 c-194 -194 -362 -365 -373 -381 -11 -15 -19 -37 -17 -50 4
-18 67 40 392 363 213 212 392 393 397 403 8 14 5 17 -18 17 -22 0 -89 -62
-381 -352z"/>
<path d="M502 4658 c-249 -249 -462 -465 -473 -481 -11 -15 -19 -37 -17 -50 4
-18 84 57 492 463 268 267 492 493 497 503 8 14 5 17 -18 17 -22 0 -104 -76
-481 -452z"/>
<path d="M602 4558 c-304 -304 -562 -565 -573 -581 -11 -15 -19 -37 -17 -50 4
-18 101 75 592 563 323 322 592 593 597 603 8 14 5 17 -18 17 -23 0 -118 -91
-581 -552z"/>
<path d="M702 4458 c-359 -359 -662 -665 -673 -681 -11 -15 -19 -37 -17 -50 4
-18 118 92 692 663 378 377 692 693 697 703 8 14 5 17 -18 17 -23 0 -133 -106
-681 -652z"/>
<path d="M1156 4711 c-358 -357 -405 -400 -440 -407 -55 -10 -105 -58 -117
-114 -9 -41 -35 -70 -300 -336 -234 -236 -289 -295 -289 -317 0 -15 3 -27 7
-27 4 0 139 132 300 292 161 161 293 286 293 277 0 -9 11 -26 25 -39 l25 -24
-325 -326 c-265 -266 -325 -331 -325 -353 0 -15 3 -27 7 -27 4 0 159 151 344
336 l336 336 34 -30 34 -31 -378 -378 c-311 -313 -377 -384 -377 -406 0 -23 3
-26 18 -18 9 5 186 179 392 385 206 207 379 376 384 376 6 0 23 -12 38 -27
l28 -27 -430 -431 c-354 -355 -430 -436 -430 -458 0 -15 3 -27 7 -27 4 0 207
199 450 442 l443 443 32 -33 33 -32 -483 -483 c-401 -402 -482 -487 -482 -510
0 -23 3 -26 18 -18 9 5 235 228 502 495 l484 486 33 -32 33 -32 -535 -536
c-443 -444 -535 -540 -535 -563 0 -15 3 -27 7 -27 4 0 254 246 555 547 l548
548 20 -21 c42 -42 24 -63 -571 -659 -464 -465 -559 -565 -559 -588 0 -15 3
-27 7 -27 4 0 250 242 545 537 l538 538 0 -65 0 -65 -545 -545 c-452 -452
-545 -550 -545 -573 0 -15 3 -27 7 -27 4 0 251 243 548 540 l541 541 13 -52
13 -51 -561 -562 c-465 -466 -561 -566 -561 -589 0 -15 3 -27 7 -27 4 0 262
255 574 566 l566 565 28 -36 28 -37 -602 -602 c-499 -500 -601 -606 -601 -629
0 -15 3 -27 7 -27 4 0 282 275 618 610 l611 611 36 -28 37 -28 -655 -655
c-544 -546 -654 -660 -654 -683 0 -15 3 -27 7 -27 4 0 309 301 678 669 l670
669 44 -19 45 -20 -722 -722 c-602 -603 -722 -727 -722 -750 0 -15 3 -27 7
-27 4 0 343 334 753 743 l745 743 59 -4 59 -4 -812 -812 c-677 -678 -811 -816
-811 -839 0 -15 3 -27 7 -27 4 0 388 380 853 843 766 765 849 845 890 857 25
7 62 21 83 32 22 11 42 17 45 13 3 -3 -418 -430 -936 -948 -789 -789 -942
-947 -942 -970 0 -15 3 -27 7 -27 4 0 373 365 818 810 733 733 811 808 807
777 -2 -19 1 -45 8 -57 11 -21 -34 -69 -814 -849 -690 -691 -826 -831 -826
-854 0 -15 3 -27 7 -27 4 0 385 377 845 837 l838 838 32 -33 33 -32 -878 -878
c-733 -734 -877 -882 -877 -905 0 -15 3 -27 7 -27 4 0 407 399 895 887 l888
888 32 -33 33 -32 -928 -928 c-776 -776 -927 -932 -927 -955 0 -15 3 -27 7
-27 4 0 430 422 945 937 l938 938 32 -33 33 -32 -978 -978 c-818 -819 -977
-982 -977 -1005 0 -15 3 -27 7 -27 4 0 452 444 995 987 l988 988 32 -33 33
-32 -1003 -1003 c-551 -551 -1002 -1006 -1002 -1010 0 -4 12 -7 27 -7 23 0
188 161 1018 989 l990 990 48 -6 49 -6 159 159 c87 87 159 154 159 149 0 -6
-502 -512 -1116 -1125 -613 -613 -1120 -1123 -1125 -1132 -8 -15 -5 -18 18
-18 23 0 201 173 1146 1118 776 774 1113 1105 1099 1077 -11 -22 -28 -67 -38
-100 l-17 -60 -1009 -1010 c-554 -556 -1008 -1014 -1008 -1018 0 -4 12 -7 27
-7 23 0 186 158 1004 976 l976 976 8 -57 7 -58 -911 -911 c-501 -501 -911
-915 -911 -919 0 -4 12 -7 27 -7 23 0 173 146 919 891 l892 892 20 -44 20 -44
-839 -840 c-462 -462 -839 -844 -839 -848 0 -4 12 -7 27 -7 23 0 163 136 853
825 l826 825 32 -33 32 -32 -776 -775 c-426 -426 -780 -783 -785 -792 -8 -15
-5 -18 18 -18 23 0 151 123 803 775 l775 775 39 -26 38 -26 -741 -742 c-407
-408 -741 -745 -741 -749 0 -4 12 -7 27 -7 23 0 150 122 764 737 l737 736 46
-13 c25 -7 46 -15 46 -19 0 -3 -315 -321 -701 -706 -385 -385 -705 -708 -710
-717 -8 -15 -5 -18 18 -18 23 0 142 115 743 714 l715 714 70 6 69 6 -712 -713
c-391 -392 -712 -716 -712 -720 0 -4 12 -7 27 -7 23 0 150 122 763 734 785
783 816 811 860 771 21 -19 15 -25 -715 -755 -404 -404 -735 -739 -735 -743 0
-4 12 -7 27 -7 23 0 123 96 588 559 l560 559 29 -35 29 -34 -516 -517 c-285
-285 -517 -521 -517 -525 0 -4 12 -7 27 -7 22 0 115 87 535 507 l508 508 32
-33 33 -32 -468 -468 c-257 -257 -467 -471 -467 -475 0 -4 12 -7 27 -7 22 0
107 80 485 457 l458 458 32 -33 33 -32 -418 -418 c-229 -230 -417 -421 -417
-425 0 -4 12 -7 27 -7 22 0 99 72 435 407 l408 408 32 -33 33 -32 -368 -368
c-202 -202 -367 -371 -367 -375 0 -4 12 -7 27 -7 22 0 92 65 385 357 l358 357
32 -32 33 -32 -318 -318 c-174 -175 -317 -321 -317 -325 0 -4 12 -7 27 -7 22
0 86 59 348 320 204 204 328 320 340 320 13 0 81 61 180 160 l159 159 23 -21
24 -22 -451 -451 c-247 -248 -450 -454 -450 -458 0 -4 12 -7 27 -7 22 0 104
77 468 439 l440 440 35 -29 35 -29 -402 -403 c-222 -222 -403 -407 -403 -411
0 -4 12 -7 27 -7 22 0 97 70 420 392 l393 393 32 -33 33 -32 -353 -353 c-193
-194 -352 -356 -352 -360 0 -4 12 -7 27 -7 22 0 89 62 368 340 187 187 345
340 351 340 6 0 22 -13 37 -28 l27 -28 -296 -294 c-162 -162 -300 -303 -305
-313 -8 -14 -5 -17 18 -17 23 0 137 110 711 683 376 375 692 694 703 710 11
15 19 37 17 50 -4 18 -68 -42 -401 -373 l-396 -394 -16 37 c-8 20 -15 42 -15
49 0 7 187 200 415 428 341 342 415 421 415 443 0 15 -3 27 -7 27 -4 0 -200
-192 -436 -428 l-428 -427 -29 35 -29 35 465 465 c386 388 464 471 464 493 0
23 -3 26 -17 18 -10 -5 -227 -219 -483 -475 l-464 -466 -33 32 -33 32 515 516
c430 430 515 520 515 543 0 23 -3 26 -17 18 -10 -5 -249 -241 -532 -524 l-514
-515 -30 35 -30 34 561 563 c466 466 562 566 562 589 0 15 -3 27 -7 27 -4 0
-188 -181 -409 -401 -335 -335 -403 -398 -408 -382 -4 11 -16 29 -27 39 -19
18 -14 24 416 454 361 362 435 441 435 463 0 23 -3 26 -17 18 -10 -5 -214
-206 -453 -445 l-434 -436 -33 32 -33 32 485 486 c401 402 485 491 485 513 0
15 -3 27 -7 27 -4 0 -232 -224 -505 -497 l-498 -498 -32 33 -33 32 538 538
c445 446 537 542 537 565 0 15 -3 27 -7 27 -4 0 -254 -246 -555 -547 l-548
-548 -32 33 -33 32 588 588 c487 488 587 592 587 615 0 15 -3 27 -7 27 -4 0
-276 -268 -604 -596 l-597 -597 -37 28 -36 28 640 642 c537 537 641 645 641
668 0 23 -3 26 -17 18 -10 -5 -310 -303 -668 -660 -425 -426 -657 -651 -670
-651 -12 0 -78 -58 -172 -152 l-153 -153 -22 23 -23 22 863 863 c721 721 862
867 862 890 0 15 -3 27 -7 27 -4 0 -381 -372 -837 -827 -520 -520 -826 -819
-822 -803 4 14 9 48 12 75 l6 50 824 825 c688 690 824 830 824 853 0 15 -3 27
-7 27 -4 0 -375 -367 -824 -816 l-817 -817 -11 54 -12 53 836 836 c698 698
835 840 835 863 0 15 -3 27 -7 27 -4 0 -384 -376 -844 -836 l-837 -837 -22 43
-22 43 866 866 c724 725 866 871 866 894 0 15 -3 27 -7 27 -4 0 -400 -393
-880 -872 l-873 -873 -32 33 -33 32 913 913 c769 769 912 917 912 940 0 23 -3
26 -17 18 -10 -5 -430 -422 -933 -925 l-914 -915 -36 21 c-19 12 -37 23 -40
25 -2 2 433 441 968 976 814 815 972 977 972 1000 0 15 -3 27 -7 27 -4 0 -454
-446 -999 -991 l-992 -992 -52 13 -52 13 1051 1051 c888 888 1051 1056 1051
1079 0 23 -3 26 -17 18 -10 -5 -499 -492 -1088 -1080 -847 -848 -1075 -1071
-1095 -1071 -14 0 -50 -7 -80 -15 l-54 -14 1167 1167 c980 980 1167 1172 1167
1195 0 15 -3 27 -7 27 -4 0 -351 -343 -771 -762 -749 -750 -762 -762 -738
-703 13 33 27 76 31 95 6 29 124 152 746 775 616 618 739 745 739 768 0 15 -3
27 -7 27 -4 0 -335 -327 -735 -727 l-728 -728 0 65 0 65 671 670 c368 369 675
678 680 688 8 14 5 17 -18 17 -23 0 -134 -107 -688 -660 l-661 -661 -12 53
-13 52 601 601 c330 330 600 604 600 608 0 4 -12 7 -27 7 -23 0 -126 -99 -610
-582 l-582 -582 -20 45 -20 44 529 530 c292 292 530 534 530 538 0 4 -12 7
-27 7 -23 0 -115 -88 -540 -512 l-512 -512 -20 45 -20 44 459 460 c253 253
460 464 460 468 0 4 -12 7 -27 7 -22 0 -105 -77 -468 -441 l-442 -440 -11 39
c-7 22 -12 46 -12 53 0 8 167 181 371 384 203 204 375 378 380 388 8 14 5 17
-18 17 -22 0 -90 -63 -389 -361 l-362 -362 -7 58 -8 57 297 297 c163 163 296
300 296 304 0 4 -12 7 -27 7 -21 0 -77 -51 -290 -262 -284 -283 -289 -286
-217 -129 30 65 55 95 187 230 132 135 149 156 129 159 -14 2 -36 -7 -55 -21
-18 -14 -230 -223 -472 -465 -279 -279 -442 -436 -447 -429 -7 12 -4 36 14 97
8 27 102 127 394 420 211 212 384 389 384 393 0 4 -12 7 -27 7 -23 0 -151
-124 -775 -747 -411 -411 -749 -745 -751 -743 -2 3 -14 20 -27 39 l-23 33 702
702 c385 386 701 705 701 709 0 4 -12 7 -27 7 -23 0 -143 -115 -718 -690 -380
-379 -694 -690 -698 -690 -5 0 -23 10 -42 23 l-34 23 650 650 c358 357 655
657 660 667 8 14 5 17 -18 17 -23 0 -133 -106 -684 -657 -648 -647 -658 -656
-686 -645 -15 5 -37 13 -47 16 -16 6 92 119 612 639 348 348 632 636 632 640
0 4 -12 7 -27 7 -23 0 -134 -107 -663 -635 l-635 -635 -65 0 -65 0 628 628
c345 345 627 631 627 635 0 4 -12 7 -27 7 -23 0 -137 -109 -678 -648 -691
-690 -711 -707 -755 -667 -21 19 -15 25 620 660 352 352 640 644 640 648 0 4
-12 7 -27 7 -23 0 -133 -106 -658 -630 l-631 -630 -32 33 -32 33 581 579 c319
319 585 588 590 598 8 14 5 17 -18 17 -23 0 -122 -95 -608 -580 l-581 -580
-34 29 -35 30 543 543 c298 299 542 547 542 551 0 4 -12 7 -27 7 -23 0 -119
-91 -560 -532 l-533 -533 -32 33 -33 32 493 493 c270 271 492 496 492 500 0 4
-12 7 -27 7 -22 0 -111 -84 -510 -482 l-483 -483 -32 33 -33 32 443 443 c243
243 442 446 442 450 0 4 -12 7 -27 7 -22 0 -104 -77 -463 -434 l-435 -435 -34
31 -34 30 397 397 c218 218 396 400 396 404 0 4 -12 7 -27 7 -22 0 -98 -71
-427 -399z m1956 -383 l-16 -78 -113 -112 -112 -112 -20 45 -20 44 146 147
c81 81 148 146 149 145 1 -1 -6 -37 -14 -79z m-422 -168 c-6 -10 -13 -46 -16
-78 l-7 -60 -272 -272 -272 -272 -18 47 -18 47 304 304 c167 167 305 304 307
304 1 0 -2 -9 -8 -20z m344 -171 c-43 -43 -81 -79 -84 -79 -3 0 -16 17 -28 36
l-24 37 99 99 98 99 9 -57 9 -56 -79 -79z m48 -151 l-76 -77 -16 47 -16 47 75
78 76 77 16 -47 17 -48 -76 -77z m-379 71 l15 -36 -283 -283 -282 -282 -7 58
-7 58 268 268 c147 147 271 264 274 260 4 -4 14 -23 22 -43z m507 -129 c0 -8
-136 -151 -303 -318 l-303 -302 -32 33 -32 33 166 164 c119 118 165 158 161
140 -3 -14 -9 -43 -12 -65 l-7 -40 49 48 c55 53 91 116 100 174 4 31 22 55 91
125 l87 88 17 -33 c9 -17 17 -39 18 -47z m-437 12 l25 -39 -357 -357 c-196
-196 -360 -354 -363 -351 -4 4 2 21 12 38 10 18 26 57 36 87 16 52 35 74 318
358 165 166 301 302 302 302 1 0 13 -17 27 -38z m487 -114 l19 -43 -287 -287
-286 -288 -33 32 -33 32 297 298 c164 164 299 298 301 298 2 0 12 -19 22 -42z
m-400 -53 c0 -6 -80 -90 -178 -188 -155 -155 -180 -176 -191 -163 -8 9 -29 16
-50 16 -36 0 -35 1 174 210 l210 211 17 -38 c10 -21 18 -43 18 -48z m460 -91
l13 -46 -264 -264 -263 -264 -33 32 -33 32 277 278 c153 153 281 278 284 278
4 0 12 -21 19 -46z m39 -179 c1 -39 -4 -45 -226 -267 l-227 -228 -33 32 -33
32 252 253 c269 269 266 267 267 178z m-34 -201 c-15 -38 -29 -78 -32 -90 -2
-11 -141 -157 -308 -324 -263 -263 -306 -302 -319 -291 -9 8 -16 17 -16 21 0
4 65 67 145 141 139 129 144 135 145 174 0 38 7 47 202 242 111 111 204 201
205 199 2 -2 -8 -34 -22 -72z"/>
<path d="M4496 650 c-339 -338 -622 -623 -627 -632 -8 -15 -5 -18 18 -18 23 0
123 95 611 583 321 320 592 594 603 610 11 15 19 37 17 50 -4 18 -106 -80
-622 -593z"/>
<path d="M4596 550 c-284 -283 -522 -523 -527 -533 -8 -14 -5 -17 18 -17 23 0
108 81 511 483 266 265 492 494 503 510 11 15 19 37 17 50 -4 18 -89 -62 -522
-493z"/>
<path d="M4696 450 c-229 -228 -422 -423 -427 -432 -8 -15 -5 -18 18 -18 22 0
93 66 411 383 211 210 392 394 403 410 11 15 19 37 17 50 -4 18 -72 -45 -422
-393z"/>
<path d="M4796 350 c-174 -173 -322 -323 -327 -332 -8 -15 -5 -18 17 -18 23 0
80 52 312 282 156 156 293 295 303 311 11 15 19 37 17 50 -4 18 -54 -28 -322
-293z"/>
<path d="M4896 250 c-119 -118 -222 -223 -227 -232 -8 -15 -5 -18 17 -18 21 0
65 37 211 183 205 202 226 227 221 260 -3 19 -37 -11 -222 -193z"/>
<path d="M4996 150 c-136 -133 -149 -150 -111 -150 18 0 49 23 111 82 102 98
127 130 122 161 -3 19 -19 7 -122 -93z"/>
</g>
</svg>
