<?xml version="1.0" standalone="no"?>
<!DOCTYPE svg PUBLIC "-//W3C//DTD SVG 20010904//EN"
 "http://www.w3.org/TR/2001/REC-SVG-20010904/DTD/svg10.dtd">
<svg version="1.0" xmlns="http://www.w3.org/2000/svg"
 width="980.000000pt" height="876.000000pt" viewBox="0 0 980.000000 876.000000"
 preserveAspectRatio="xMidYMid meet">
<metadata>
Created by potrace 1.15, written by Peter Selinger 2001-2017
</metadata>
<g transform="translate(0.000000,876.000000) scale(0.100000,-0.100000)"
fill="#000000" stroke="none">
<path d="M7886 7869 c-485 -486 -916 -925 -957 -975 -42 -50 -85 -111 -97
-135 -67 -138 -82 -357 -37 -535 14 -54 25 -105 25 -114 0 -16 -1909 -1930
-1925 -1930 -6 0 -241 231 -524 514 l-514 514 6 169 c6 162 15 241 56 518 65
436 16 801 -143 1067 -87 147 -417 467 -921 894 -534 452 -894 718 -1112 821
-83 40 -109 47 -175 51 -124 7 -162 -16 -398 -240 -273 -259 -949 -944 -1044
-1058 -148 -176 -156 -234 -63 -425 148 -301 569 -846 1167 -1509 333 -370
460 -485 625 -565 240 -117 350 -137 690 -128 223 7 255 10 495 47 79 13 209
24 314 27 l178 6 519 -519 519 -519 -477 -477 -476 -476 -106 5 c-119 6 -205
-10 -270 -51 -78 -49 -281 -246 -1036 -1001 -867 -867 -1098 -1107 -1128
-1173 -46 -105 -42 -280 8 -390 34 -75 163 -203 241 -239 55 -26 68 -28 194
-28 196 0 178 -11 566 363 377 365 1395 1389 1642 1651 199 213 197 208 207
408 l7 128 1610 1611 1610 1611 82 -26 c73 -23 97 -25 246 -25 145 0 172 3
225 22 81 30 144 74 288 200 124 108 1787 1759 1787 1773 0 11 -451 16 -474 5
-37 -17 -228 -198 -745 -710 -536 -529 -677 -662 -740 -693 -27 -14 -60 -18
-131 -18 -84 0 -102 3 -152 28 -121 60 -200 186 -200 322 0 81 15 124 69 199
21 28 338 354 705 724 l668 673 0 239 c0 163 -4 241 -11 246 -6 4 -380 -363
-893 -877z m-6079 124 c130 -117 931 -911 1194 -1186 160 -166 209 -223 209
-243 0 -40 -26 -80 -66 -99 l-36 -17 -57 38 c-31 21 -312 293 -625 604 -551
548 -798 803 -825 854 -18 32 -7 71 29 107 46 46 67 39 177 -58z m-460 -460
c129 -115 951 -931 1204 -1196 151 -158 199 -214 199 -233 0 -40 -26 -80 -65
-98 -36 -17 -37 -17 -75 8 -71 47 -282 251 -826 797 -537 540 -654 666 -654
701 0 48 53 108 96 108 14 0 61 -34 121 -87z m-471 -450 c113 -99 964 -943
1220 -1210 202 -211 210 -223 183 -276 -17 -34 -51 -57 -85 -57 -22 0 -48 15
-100 57 -87 71 -1171 1150 -1302 1296 -118 131 -127 146 -118 182 10 38 59 85
89 85 16 0 54 -26 113 -77z m902 -6252 c67 -35 112 -104 112 -173 0 -55 -43
-133 -91 -165 -37 -24 -52 -28 -115 -28 -66 0 -76 3 -110 31 -52 41 -78 97
-78 159 1 59 19 97 66 142 67 65 135 75 216 34z"/>
<path d="M5285 3450 l-160 -160 438 -438 437 -437 0 -110 c0 -101 2 -115 29
-170 16 -33 59 -98 97 -145 75 -94 1434 -1458 1749 -1755 110 -103 216 -195
235 -203 23 -10 80 -17 163 -20 l128 -4 75 36 c146 73 233 198 254 365 5 46 7
102 4 125 -10 63 -56 141 -151 256 -153 184 -1720 1748 -1870 1867 -85 67
-148 86 -280 87 l-113 1 -432 433 c-238 237 -435 432 -438 432 -3 0 -77 -72
-165 -160z m2918 -2664 c78 -33 112 -109 97 -213 -6 -39 -15 -54 -50 -85 -138
-123 -358 4 -311 180 13 46 59 98 106 118 40 17 117 17 158 0z"/>
</g>
</svg>
