<?xml version="1.0" standalone="no"?>
<!DOCTYPE svg PUBLIC "-//W3C//DTD SVG 20010904//EN"
 "http://www.w3.org/TR/2001/REC-SVG-20010904/DTD/svg10.dtd">
<svg version="1.0" xmlns="http://www.w3.org/2000/svg"
 width="304.000000pt" height="512.000000pt" viewBox="0 0 304.000000 512.000000"
 preserveAspectRatio="xMidYMid meet">
<metadata>
Created by potrace 1.15, written by Peter Selinger 2001-2017
</metadata>
<g transform="translate(0.000000,512.000000) scale(0.100000,-0.100000)"
fill="#000000" stroke="none">
<path d="M1385 5113 c-24 -4 -159 -134 -683 -656 -359 -359 -662 -664 -673
-680 -11 -15 -19 -37 -17 -50 4 -18 111 84 646 618 562 560 640 635 631 601
-6 -21 -8 -53 -5 -70 6 -29 -1 -39 -99 -136 -58 -58 -105 -98 -105 -89 0 9 7
38 15 64 17 57 13 66 -16 39 -32 -29 -69 -97 -91 -167 -16 -54 -30 -73 -106
-149 -66 -68 -91 -87 -106 -82 -15 5 -18 3 -12 -12 5 -14 -73 -98 -374 -399
-312 -313 -380 -386 -380 -408 0 -15 3 -27 7 -27 4 0 180 172 391 383 l384
382 -5 -69 -5 -68 -386 -387 c-317 -318 -386 -392 -386 -414 0 -15 3 -27 7
-27 4 0 168 160 363 355 l356 356 -21 -86 c-21 -83 -25 -90 -85 -148 -55 -55
-62 -59 -56 -34 4 15 3 27 -1 27 -11 0 -63 -84 -63 -100 0 -7 -112 -127 -250
-265 -200 -202 -250 -257 -250 -279 0 -14 3 -26 7 -26 4 0 106 99 227 220
l221 220 -3 -69 -4 -69 -229 -227 c-206 -203 -229 -230 -229 -259 0 -35 25
-66 53 -66 26 0 20 -27 -14 -70 -19 -23 -29 -47 -27 -60 l3 -22 27 21 c14 12
28 21 31 21 2 0 7 -23 11 -50 7 -49 5 -53 -34 -97 -42 -48 -57 -103 -22 -84 9
5 30 23 47 41 l30 31 16 -48 16 -48 -63 -68 c-43 -45 -64 -75 -64 -92 0 -14 3
-25 6 -25 3 0 36 29 74 65 l67 65 18 -45 17 -46 -91 -94 c-66 -68 -91 -101
-91 -120 0 -14 3 -25 6 -25 4 0 51 43 105 96 l98 97 20 -34 c12 -19 21 -38 21
-43 0 -5 -56 -67 -125 -137 -96 -98 -125 -133 -125 -153 0 -39 15 -27 159 118
l125 125 27 -37 28 -37 -170 -171 c-133 -135 -169 -177 -169 -198 0 -14 3 -26
7 -26 4 0 87 80 185 177 l178 177 32 -32 32 -32 -217 -218 c-173 -175 -217
-224 -217 -245 0 -15 3 -27 7 -27 4 0 109 102 234 227 l228 226 34 -29 34 -29
-268 -271 c-217 -219 -269 -276 -269 -297 0 -15 3 -27 7 -27 4 0 134 127 289
281 l282 282 37 -28 36 -28 -325 -327 c-266 -266 -326 -331 -326 -353 0 -15 3
-27 7 -27 4 0 161 153 348 340 l341 341 42 -23 41 -23 -389 -391 c-320 -320
-390 -395 -390 -417 0 -15 3 -27 7 -27 4 0 190 182 413 405 l405 405 33 -12
c35 -14 37 -19 21 -51 -6 -12 -206 -218 -445 -457 -357 -359 -434 -441 -434
-463 0 -15 3 -27 7 -27 4 0 187 179 406 398 l398 397 -37 -85 c-20 -47 -42
-98 -50 -115 -7 -16 -88 -105 -181 -196 -151 -150 -174 -169 -223 -184 -209
-67 -349 -280 -324 -495 4 -36 6 -78 5 -94 -2 -15 1 -26 6 -23 5 3 19 -14 31
-39 l22 -45 -31 -38 c-19 -25 -29 -47 -27 -62 3 -23 4 -22 46 15 l43 39 31
-31 32 -31 -52 -55 c-29 -30 -52 -57 -52 -60 0 -3 11 -6 24 -6 14 0 43 18 72
43 l48 44 36 -20 c19 -11 36 -22 38 -23 2 -1 -1 -12 -8 -23 -9 -19 -8 -21 13
-21 12 0 28 5 34 11 8 8 29 8 80 -1 78 -13 162 -6 240 21 l53 18 -16 -25 c-16
-23 -16 -24 11 -24 23 0 66 38 240 210 l211 210 64 0 64 0 -202 -203 c-111
-112 -202 -206 -202 -210 0 -4 12 -7 27 -7 21 0 69 43 238 210 l211 210 64 0
64 0 -202 -203 c-111 -112 -202 -206 -202 -210 0 -4 12 -7 27 -7 21 0 69 43
238 210 l211 210 64 0 64 0 -202 -203 c-111 -112 -202 -206 -202 -210 0 -4 12
-7 27 -7 21 0 69 43 238 210 l211 210 64 0 64 0 -202 -203 c-111 -112 -202
-206 -202 -210 0 -4 12 -7 27 -7 21 0 69 43 238 210 l211 210 64 0 64 0 -202
-203 c-111 -112 -202 -206 -202 -210 0 -4 12 -7 27 -7 21 0 69 43 238 210 197
196 213 210 247 210 29 0 38 -5 43 -21 6 -18 -23 -51 -174 -203 -100 -100
-181 -185 -181 -189 0 -4 12 -7 26 -7 21 0 63 36 194 166 l168 166 17 -47 18
-46 -111 -113 c-62 -62 -112 -116 -112 -119 0 -4 11 -7 26 -7 18 0 51 25 124
96 l98 95 17 -45 18 -46 -44 -47 c-42 -46 -43 -48 -21 -51 13 -2 37 7 55 21
32 24 32 24 58 5 34 -26 99 -34 130 -17 13 8 135 127 272 265 196 200 247 257
247 278 0 14 -3 26 -7 26 -4 0 -104 -97 -223 -216 l-217 -215 -18 46 -17 47
241 242 c194 195 241 248 241 269 0 15 -3 27 -7 27 -4 0 -118 -111 -253 -246
l-247 -245 -18 46 -17 47 271 272 c219 221 271 278 271 299 0 15 -3 27 -7 27
-4 0 -132 -124 -283 -276 l-277 -275 -18 46 -17 47 301 302 c245 246 301 307
301 329 0 15 -3 27 -7 27 -4 0 -145 -138 -314 -306 l-306 -305 -18 46 -17 47
331 332 c270 271 331 337 331 359 0 15 -3 27 -7 27 -4 0 -159 -151 -344 -336
l-336 -335 -18 46 -17 47 361 362 c296 297 361 367 361 389 0 15 -3 27 -7 27
-4 0 -172 -165 -374 -366 l-366 -365 -18 46 -17 47 391 392 c321 322 391 397
391 419 0 15 -3 27 -7 27 -4 0 -186 -178 -404 -396 l-396 -395 -18 46 -17 47
421 422 c347 347 421 427 421 449 0 15 -3 27 -7 27 -4 0 -199 -191 -433 -425
l-425 -425 -19 46 -19 46 452 452 c372 373 451 457 451 479 0 15 -3 27 -7 27
-4 0 -212 -205 -463 -455 l-455 -455 -19 46 -19 46 482 482 c397 398 481 487
481 509 0 15 -3 27 -7 27 -4 0 -226 -218 -493 -485 l-485 -485 -19 46 -19 46
512 512 511 512 0 73 c0 40 -5 81 -11 92 -7 15 -7 24 1 34 6 8 10 24 8 36 -3
22 -3 22 -34 -4 -27 -23 -41 -27 -94 -27 l-63 0 96 99 c72 74 97 107 97 126 0
37 -16 26 -150 -109 -94 -95 -120 -116 -144 -116 -28 0 -28 1 -23 41 5 37 21
57 161 199 122 123 156 163 156 184 0 14 -3 26 -7 26 -3 0 -57 -50 -120 -112
-112 -111 -113 -112 -129 -90 -9 13 -26 22 -41 22 -23 0 -6 21 135 164 128
129 162 169 162 190 0 22 -3 25 -17 17 -10 -5 -99 -91 -198 -190 l-180 -181
-64 0 -65 0 262 263 c213 215 262 269 262 291 0 22 -3 25 -17 17 -10 -5 -144
-136 -298 -290 l-280 -281 -65 0 -64 0 362 363 c299 300 362 368 362 390 0 23
-3 26 -17 18 -10 -5 -189 -181 -398 -390 l-380 -381 -65 0 -65 0 463 463 c381
382 462 468 462 490 0 15 -3 27 -7 27 -4 0 -189 -181 -412 -402 -222 -222
-401 -396 -398 -387 3 10 11 46 18 80 l12 64 393 396 c323 324 394 400 394
422 0 15 -3 27 -7 27 -4 0 -182 -174 -395 -387 l-388 -388 0 65 0 64 395 396
c325 325 395 401 395 423 0 15 -3 27 -7 27 -4 0 -186 -178 -404 -396 l-396
-396 -17 48 -16 48 420 421 c346 347 420 426 420 448 0 15 -3 27 -7 27 -4 0
-199 -192 -434 -426 l-426 -426 -21 26 c-28 36 -33 33 -25 -20 l6 -46 -69 -69
c-62 -62 -70 -68 -81 -52 -7 9 -13 33 -13 52 0 34 30 66 535 571 443 444 535
540 535 563 0 15 -3 27 -7 27 -4 0 -237 -228 -517 -507 -280 -280 -505 -499
-501 -488 3 11 12 47 17 80 l11 60 499 500 c412 414 498 506 498 528 0 15 -3
27 -7 27 -4 0 -229 -221 -499 -491 -270 -270 -494 -487 -497 -483 -2 5 -8 29
-12 53 l-7 44 496 496 c273 273 496 500 496 504 0 4 -12 7 -27 7 -22 0 -111
-83 -508 -480 l-480 -479 -23 41 -23 42 431 431 c236 237 430 434 430 438 0 4
-12 7 -27 7 -22 0 -101 -74 -447 -419 -370 -369 -423 -419 -440 -409 -17 9
-18 8 -13 -14 5 -20 -5 -35 -62 -92 l-69 -68 5 68 5 69 424 425 c233 234 424
429 424 433 0 4 -12 7 -27 7 -22 0 -98 -71 -424 -396 l-397 -397 -11 39 c-6
22 -11 46 -11 54 0 8 147 161 326 340 179 179 330 333 335 343 8 14 5 17 -17
17 -23 0 -85 -57 -348 -320 l-321 -319 -24 41 -23 40 271 272 c149 150 271
275 271 279 0 4 -12 7 -27 7 -21 0 -77 -50 -285 -257 l-260 -258 -29 35 -29
34 215 216 c118 119 215 219 215 223 0 4 -12 7 -26 7 -22 0 -69 -41 -230 -202
-112 -111 -205 -200 -207 -197 -2 2 -14 19 -27 37 l-23 34 157 157 c86 87 156
160 156 164 0 4 -12 7 -26 7 -20 0 -59 -32 -168 -140 -78 -77 -145 -140 -148
-140 -3 0 -13 18 -23 40 l-18 40 91 94 c51 51 92 96 92 100 0 3 -11 6 -25 6
-17 0 -48 -22 -101 -72 l-77 -73 6 60 c3 33 8 68 12 78 4 9 3 16 -1 16 -5 -1
-22 -4 -39 -6z m-61 -375 l16 -43 -119 -119 c-66 -66 -123 -118 -126 -115 -3
3 -8 27 -11 53 l-7 48 109 109 c60 60 111 109 115 109 3 0 13 -19 23 -42z m45
-150 l12 -52 -103 -103 c-98 -98 -103 -102 -121 -85 -48 44 -47 47 79 173 65
66 120 119 121 119 1 0 6 -23 12 -52z m526 -475 l-7 -68 -96 -97 c-53 -54
-100 -98 -105 -98 -4 0 -12 11 -17 24 -18 47 5 86 117 198 59 60 109 108 111
108 3 0 1 -30 -3 -67z m-830 -35 l16 -42 -75 -75 c-41 -41 -78 -72 -82 -69 -3
4 -12 24 -19 45 l-14 38 72 73 c39 39 74 72 78 72 4 0 14 -19 24 -42z m249
-344 l0 -65 -62 -62 -62 -62 0 65 0 64 62 63 c34 35 63 63 63 63 0 0 0 -30 -1
-66z m-610 -28 c7 -37 5 -41 -45 -93 l-53 -53 -18 32 c-9 18 -17 40 -18 48 0
8 26 40 57 72 61 62 65 62 77 -6z m896 -88 l19 -43 -287 -287 -287 -288 -65 0
-65 0 124 124 c110 110 128 124 151 119 35 -6 60 19 60 60 0 27 14 46 84 116
77 77 86 83 114 76 63 -13 112 39 112 120 0 28 6 45 17 45 2 0 13 -19 23 -42z
m-247 -47 l25 -38 -73 -73 -74 -73 -14 49 -15 49 61 63 c34 34 62 62 63 62 1
0 13 -17 27 -39z m284 -139 c-5 -43 -13 -53 -198 -238 l-194 -194 -65 0 -65 0
255 255 c272 272 278 276 267 177z m-1168 -177 c1 -25 -16 -47 -111 -142
l-113 -113 -65 0 -65 0 170 170 c164 165 170 169 176 143 4 -16 7 -41 8 -58z
m1194 -15 c17 0 -5 -27 -98 -120 l-120 -120 -65 0 -65 0 144 144 144 145 19
-25 c11 -13 29 -24 41 -24z m122 -57 c-3 -15 -1 -23 7 -23 7 0 -23 -36 -67
-80 l-80 -80 -65 0 -65 0 130 130 c128 128 130 130 138 103 4 -16 5 -38 2 -50z
m-1261 -104 l-79 -79 -65 0 -65 0 82 83 83 82 61 -3 62 -4 -79 -79z m201 1
l-80 -80 -65 0 -65 0 80 80 80 80 65 0 65 0 -80 -80z m200 0 l-80 -80 -65 0
-65 0 80 80 80 80 65 0 65 0 -80 -80z m1000 0 l-80 -80 -65 0 -65 0 80 80 80
80 65 0 65 0 -80 -80z m200 0 l-80 -80 -65 0 -65 0 80 80 80 80 65 0 65 0 -80
-80z m360 -1040 l-489 -489 -20 45 -19 45 79 81 c43 44 111 103 149 132 106
80 190 161 263 256 36 47 140 160 231 253 l166 167 65 0 65 0 -490 -490z
m-1230 -830 c-416 -416 -420 -420 -439 -400 -20 19 -20 20 3 68 18 38 102 128
362 388 l339 339 73 11 c39 6 74 12 77 13 3 0 -184 -188 -415 -419z m185 387
c0 -1 -122 -124 -271 -272 -200 -200 -267 -261 -256 -235 81 193 68 175 240
348 l162 162 62 0 c35 0 63 -1 63 -3z m290 -57 l14 -41 -414 -414 c-228 -228
-416 -412 -419 -410 -3 2 -15 20 -25 40 l-20 36 419 419 c230 230 422 417 425
415 4 -2 13 -23 20 -45z m70 -170 c0 -8 -156 -171 -347 -362 l-348 -348 -65 0
-65 0 395 395 395 395 17 -33 c9 -17 17 -39 18 -47z m60 -140 c0 -8 -125 -140
-277 -292 l-278 -278 -65 0 -65 0 325 325 325 325 17 -33 c9 -17 17 -39 18
-47z m60 -140 c0 -8 -93 -109 -208 -223 l-207 -207 -65 0 -65 0 255 255 255
255 17 -33 c9 -17 17 -39 18 -47z m60 -140 c0 -8 -62 -77 -137 -152 l-138
-138 -65 0 -65 0 185 185 185 185 17 -33 c9 -17 17 -39 18 -47z m60 -140 c0
-8 -30 -45 -67 -82 l-67 -68 -66 0 -65 0 115 115 115 115 17 -33 c9 -17 17
-39 18 -47z m-1467 -228 l27 -28 -103 -102 -103 -103 -20 23 c-41 45 -41 46
57 144 52 52 98 94 104 94 6 0 23 -13 38 -28z"/>
<path d="M203 4958 c-174 -172 -196 -198 -191 -231 3 -19 32 5 192 163 103
102 192 193 197 203 8 14 5 17 -17 17 -21 0 -60 -33 -181 -152z"/>
<path d="M303 4858 c-140 -139 -264 -265 -275 -281 -10 -15 -18 -37 -16 -50 3
-18 49 23 292 263 158 157 292 293 297 303 8 14 5 17 -17 17 -22 0 -75 -47
-281 -252z"/>
<path d="M402 4758 c-194 -194 -362 -365 -373 -381 -11 -15 -19 -37 -17 -50 4
-18 67 40 392 363 213 212 392 393 397 403 8 14 5 17 -18 17 -22 0 -89 -62
-381 -352z"/>
<path d="M502 4658 c-249 -249 -462 -465 -473 -481 -11 -15 -19 -37 -17 -50 4
-18 84 57 492 463 268 267 492 493 497 503 8 14 5 17 -18 17 -22 0 -104 -76
-481 -452z"/>
<path d="M602 4558 c-304 -304 -562 -565 -573 -581 -11 -15 -19 -37 -17 -50 4
-18 101 75 592 563 323 322 592 593 597 603 8 14 5 17 -18 17 -23 0 -118 -91
-581 -552z"/>
<path d="M2856 210 c-97 -96 -182 -183 -187 -193 -8 -14 -5 -17 17 -17 20 0
58 32 171 142 163 161 186 189 181 221 -3 19 -30 -4 -182 -153z"/>
</g>
</svg>
