<?xml version="1.0" standalone="no"?>
<!DOCTYPE svg PUBLIC "-//W3C//DTD SVG 20010904//EN"
 "http://www.w3.org/TR/2001/REC-SVG-20010904/DTD/svg10.dtd">
<svg version="1.0" xmlns="http://www.w3.org/2000/svg"
 width="688.000000pt" height="980.000000pt" viewBox="0 0 688.000000 980.000000"
 preserveAspectRatio="xMidYMid meet">
<metadata>
Created by potrace 1.15, written by Peter Selinger 2001-2017
</metadata>
<g transform="translate(0.000000,980.000000) scale(0.100000,-0.100000)"
fill="#000000" stroke="none">
<path d="M2795 9782 c-71 -33 -125 -115 -125 -189 0 -49 34 -116 76 -150 133
-107 150 -138 148 -268 -3 -192 -81 -373 -375 -867 -226 -381 -319 -610 -350
-862 -26 -213 29 -404 151 -526 125 -125 322 -202 438 -170 109 29 185 163
146 259 -21 54 -104 128 -152 137 -81 15 -152 69 -173 131 -7 23 -10 72 -7
132 8 152 64 283 268 621 222 370 335 598 404 820 89 285 88 481 -4 668 -100
201 -311 327 -445 264z"/>
<path d="M3853 8610 c-81 -21 -108 -33 -140 -63 -45 -41 -28 -91 76 -222 32
-41 41 -58 33 -68 -6 -7 -15 -40 -21 -74 -14 -87 -59 -189 -152 -344 -158
-262 -227 -426 -250 -594 -28 -210 52 -369 229 -457 152 -77 283 -53 342 61
61 120 18 227 -116 291 -60 28 -64 32 -64 63 0 42 48 142 157 325 177 299 243
457 263 630 11 100 2 205 -24 267 -26 61 -93 144 -144 176 -54 34 -87 36 -189
9z"/>
<path d="M1090 6200 c-399 -4 -781 -11 -848 -15 -120 -7 -125 -8 -160 -39 -93
-82 -96 -222 -5 -308 39 -38 87 -55 171 -63 40 -4 77 -14 83 -21 6 -8 28 -96
49 -196 59 -281 102 -407 224 -663 158 -330 364 -620 627 -885 265 -267 523
-451 869 -622 102 -50 186 -92 188 -93 4 -3 -430 -790 -691 -1255 -177 -316
-275 -481 -309 -523 l-23 -28 -210 -2 -210 -2 -85 -41 c-168 -81 -323 -236
-404 -404 l-41 -85 -3 -172 c-4 -195 4 -239 66 -357 73 -139 270 -314 431
-381 86 -36 215 -50 321 -36 185 25 406 166 520 331 70 103 140 261 140 319 0
14 5 43 11 64 l10 37 1492 -2 1491 -3 73 -155 c241 -518 282 -581 377 -597
115 -18 266 115 242 213 -14 55 -247 565 -861 1884 -224 481 -439 944 -477
1029 l-70 154 22 17 c12 9 70 38 129 65 613 276 1190 834 1507 1457 l65 128
470 0 470 0 51 48 c85 79 100 155 51 253 -52 100 -95 109 -552 109 l-333 0 5
28 c4 15 13 59 21 97 26 118 47 275 53 391 7 128 -6 200 -44 245 -49 58 -65
61 -343 70 -365 12 -3700 19 -4560 9z m4515 -477 c-34 -253 -104 -483 -218
-710 -276 -550 -688 -967 -1202 -1219 -641 -313 -1361 -313 -2000 1 -265 130
-467 277 -686 501 -363 372 -559 718 -689 1219 -17 66 -34 150 -37 188 l-6 67
2422 0 2422 0 -6 -47z m-2765 -2563 c128 -17 394 -22 575 -10 99 7 195 13 214
14 l34 1 424 -905 c536 -1144 489 -1040 473 -1050 -7 -4 -85 -11 -174 -15
-208 -9 -2704 0 -2733 10 -22 7 -22 7 14 79 67 133 982 1799 1030 1875 12 19
20 22 46 17 18 -4 61 -11 97 -16z m-1678 -2090 c73 -27 148 -87 178 -140 20
-36 25 -63 28 -138 6 -137 -15 -209 -82 -278 -63 -64 -121 -84 -246 -84 -108
0 -174 19 -228 66 -52 44 -76 90 -92 172 -28 138 9 276 93 347 82 70 242 95
349 55z"/>
<path d="M1409 5530 c-41 -12 -80 -41 -110 -84 -23 -31 -29 -50 -29 -91 0
-152 143 -470 326 -726 78 -109 205 -242 251 -264 126 -60 283 50 283 198 0
52 -34 108 -155 257 -140 173 -252 380 -292 537 -14 56 -24 75 -63 114 -62 62
-135 82 -211 59z"/>
</g>
</svg>
