<?xml version="1.0" standalone="no"?>
<!DOCTYPE svg PUBLIC "-//W3C//DTD SVG 20010904//EN"
 "http://www.w3.org/TR/2001/REC-SVG-20010904/DTD/svg10.dtd">
<svg version="1.0" xmlns="http://www.w3.org/2000/svg"
 width="100pt" height="100pt" viewBox="0 0 100 100"
 preserveAspectRatio="xMidYMid meet">
<metadata>
Created by potrace 1.15, written by Peter Selinger 2001-2017
</metadata>
<g transform="translate(0.000000,100.000000) scale(0.100000,-0.100000)"
fill="#000000" stroke="none">
<path d="M1222 2220 c-48 -35 -92 -105 -99 -160 -7 -50 15 -119 64 -201 28
-47 38 -75 38 -106 0 -38 -6 -48 -52 -95 -57 -58 -63 -76 -35 -101 30 -28 51
-20 111 41 96 96 101 180 19 318 -26 44 -42 85 -45 115 -5 46 -4 48 51 102 31
31 56 60 56 64 0 18 -32 53 -49 53 -10 0 -36 -13 -59 -30z"/>
<path d="M914 2071 c-50 -31 -86 -86 -92 -139 -3 -40 2 -58 37 -126 23 -44 41
-88 41 -98 0 -10 -18 -38 -40 -62 -22 -24 -40 -50 -40 -58 0 -19 32 -48 51
-48 28 0 97 69 114 115 22 55 15 92 -30 178 -45 85 -45 105 5 151 45 42 49 57
20 86 -25 25 -27 25 -66 1z"/>
<path d="M1590 2071 c-19 -10 -48 -37 -65 -60 -43 -61 -41 -116 8 -209 20 -39
37 -81 37 -93 0 -12 -18 -41 -40 -65 -46 -50 -47 -57 -20 -84 28 -28 44 -25
91 17 83 75 90 133 29 248 -22 42 -40 85 -40 96 0 11 18 39 41 61 44 44 48 71
14 94 -18 12 -26 11 -55 -5z"/>
<path d="M542 1458 c-7 -7 -12 -39 -12 -75 l0 -63 -118 0 c-125 0 -142 -6
-142 -47 0 -43 36 -54 166 -52 l118 1 17 -48 c50 -148 166 -302 281 -372 l36
-22 -28 -73 c-15 -39 -78 -199 -139 -355 -61 -155 -111 -294 -111 -307 0 -31
34 -51 65 -37 15 7 32 36 54 96 l33 86 381 -1 382 0 28 -58 c64 -136 239 -172
350 -73 150 136 64 381 -135 382 l-43 0 -65 162 c-36 88 -66 164 -68 167 -1 4
11 14 26 24 180 105 317 337 338 571 10 117 82 106 -715 106 -521 0 -690 -3
-699 -12z m1313 -125 c-47 -279 -239 -489 -493 -539 -270 -54 -540 80 -661
328 -40 81 -71 180 -71 225 l0 23 615 0 616 0 -6 -37z m-798 -624 c57 -16 107
-22 183 -22 95 0 127 5 245 38 18 5 27 -12 82 -151 l62 -157 -38 -42 c-21 -23
-42 -52 -46 -64 -6 -21 -7 -21 -375 -21 l-369 0 35 88 c19 48 58 147 86 220
28 72 53 132 55 132 1 0 38 -10 80 -21z m747 -373 c96 -40 104 -176 12 -220
-90 -43 -187 11 -190 105 -1 46 26 87 75 111 41 22 59 22 103 4z"/>
<path d="M762 1288 c-15 -15 -15 -79 0 -115 37 -86 107 -153 160 -153 60 0 66
59 9 94 -44 28 -77 76 -84 124 -3 18 -11 40 -17 48 -15 17 -52 18 -68 2z"/>
</g>
</svg>
