<?xml version="1.0" standalone="no"?>
<!DOCTYPE svg PUBLIC "-//W3C//DTD SVG 20010904//EN"
 "http://www.w3.org/TR/2001/REC-SVG-20010904/DTD/svg10.dtd">
<svg version="1.0" xmlns="http://www.w3.org/2000/svg"
 width="218.000000pt" height="231.000000pt" viewBox="0 0 218.000000 231.000000"
 preserveAspectRatio="xMidYMid meet">
<metadata>
Created by potrace 1.15, written by Peter Selinger 2001-2017
</metadata>
<g transform="translate(0.000000,231.000000) scale(0.100000,-0.100000)"
fill="#000000" stroke="none">
<path d="M1365 1939 l7 -372 -548 7 -549 7 -36 -38 c-120 -126 -147 -275 -75
-418 l32 -64 -97 -27 -97 -27 10 -28 c8 -22 18 -30 46 -35 157 -27 156 -27
163 -63 5 -23 -4 -81 -30 -193 -21 -87 -34 -161 -29 -164 4 -3 1 -12 -7 -20
-34 -35 -6 -104 43 -104 39 0 68 70 40 98 -7 7 -8 15 -3 20 6 5 90 36 188 70
l177 61 0 -34 c0 -61 65 -82 89 -29 16 36 14 49 -13 81 -13 15 -27 43 -31 62
-7 32 -6 33 16 28 13 -3 79 -16 147 -28 67 -12 122 -26 122 -31 0 -5 -7 -23
-17 -41 -23 -45 -43 -125 -43 -173 0 -53 25 -62 71 -28 45 33 52 30 27 -12
-15 -26 -23 -59 -26 -114 -13 -224 135 -363 340 -321 113 24 173 87 191 201
12 71 12 71 40 64 23 -5 29 -2 34 15 4 15 11 19 27 16 11 -3 84 -19 160 -35
l140 -30 72 40 c51 28 85 40 113 40 34 0 44 5 70 39 l31 39 10 298 c6 191 6
300 0 304 -5 3 -100 18 -212 33 -111 15 -203 29 -205 30 -1 2 3 34 8 72 21
139 -10 289 -74 361 -41 48 -77 64 -140 64 l-54 0 -6 203 c-4 111 -7 280 -7
375 l0 172 -61 0 -62 0 8 -371z m88 114 c4 -120 7 -284 7 -365 l0 -148 27 0
c26 0 25 -3 -32 -62 l-60 -61 62 46 c103 78 147 86 188 33 14 -18 31 -59 37
-89 18 -85 0 -116 -89 -152 -81 -34 -89 -40 -106 -74 -8 -18 -20 -26 -37 -26
-24 0 -25 2 -25 75 0 41 3 95 7 120 l8 45 -16 -35 c-51 -116 -74 -299 -45
-367 7 -18 15 -33 17 -33 7 0 259 -41 287 -46 15 -3 27 -1 27 4 0 5 -45 15
-100 22 -55 7 -98 16 -94 19 3 3 33 11 66 18 33 7 79 21 102 32 l40 21 166
-20 c91 -11 172 -22 180 -23 8 -2 -22 -22 -68 -46 -82 -41 -85 -42 -155 -35
-85 8 -86 -1 -2 -14 59 -10 63 -9 179 40 65 27 120 48 122 46 1 -2 0 -128 -3
-281 l-6 -277 -33 0 c-18 0 -36 -4 -39 -10 -3 -5 1 -10 11 -10 13 0 14 -3 4
-15 -7 -8 -25 -15 -40 -15 -38 0 -60 -9 -55 -23 4 -10 -113 -73 -120 -65 -2 2
4 126 12 276 9 150 13 275 11 278 -3 3 -31 -7 -62 -23 -51 -25 -56 -30 -56
-60 0 -32 -1 -33 -43 -33 -24 0 -47 -4 -53 -10 -6 -6 -18 -4 -33 6 -16 12 -20
19 -12 27 21 21 11 27 -46 27 -32 0 -95 3 -141 7 l-83 6 3 61 c3 54 5 61 27
66 21 5 21 6 -12 18 -32 12 -37 18 -46 65 -18 93 -22 161 -13 224 10 70 0 73
-29 9 -21 -47 -53 -81 -68 -72 -6 4 -13 -13 -17 -40 l-7 -47 -81 7 c-44 3
-114 6 -154 6 -46 0 -71 4 -67 10 4 6 62 10 141 10 l134 0 0 59 c0 73 23 199
44 240 21 40 20 48 -3 27 -30 -27 -61 -131 -68 -223 l-6 -83 -94 0 c-90 0 -94
1 -88 20 8 26 -15 35 -52 22 l-28 -10 29 -1 c25 -1 27 -3 15 -17 -7 -8 -26
-22 -43 -31 -35 -18 -119 -14 -360 17 -143 18 -176 29 -176 55 0 18 59 30 73
16 8 -8 5 -11 -13 -11 -13 0 -21 -2 -18 -5 5 -5 392 -45 437 -45 17 0 22 3 15
10 -6 6 -93 20 -195 31 -131 14 -187 24 -195 34 -6 8 -24 15 -40 15 -38 0
-104 -19 -104 -30 0 -4 -9 -6 -19 -3 -17 4 -18 12 -14 66 7 85 27 166 54 212
l23 38 175 -6 c397 -15 636 -19 629 -12 -4 4 -184 16 -400 25 l-393 17 -23
-20 c-88 -80 -125 -330 -51 -347 13 -3 25 -14 27 -24 3 -15 0 -18 -19 -13 -13
4 -34 7 -46 7 -18 0 -23 9 -32 50 -6 28 -11 67 -11 87 0 33 -2 35 -26 30 -26
-5 -26 -4 -21 40 6 57 57 160 99 199 l33 31 480 -13 c264 -7 515 -13 558 -13
l78 -1 -5 58 c-3 31 -8 195 -11 365 l-6 307 34 0 34 0 6 -217z m-952 -1028
c145 -19 367 -49 494 -66 126 -17 231 -32 233 -34 4 -4 -28 -18 -111 -50 -79
-30 -46 -27 46 4 78 27 108 27 93 2 -3 -5 -46 -19 -96 -32 -49 -13 -90 -28
-90 -32 0 -5 12 -6 27 -2 15 3 66 1 115 -6 84 -11 88 -13 88 -37 0 -21 -3 -24
-27 -19 -88 17 -103 19 -103 9 0 -10 36 -17 148 -28 39 -3 72 -11 72 -15 0
-11 -7 -11 -80 -9 -30 1 -53 0 -50 -3 3 -2 55 -17 115 -32 92 -23 114 -32 138
-58 15 -17 27 -37 27 -44 0 -16 22 -17 38 -1 8 8 14 5 22 -16 14 -37 13 -51
-5 -66 -10 -8 -15 -30 -15 -61 0 -37 -4 -49 -15 -49 -10 0 -15 10 -15 28 0 41
-29 145 -45 161 -12 12 -20 12 -55 1 -38 -13 -42 -12 -62 7 l-20 21 21 7 c11
3 21 10 21 14 0 18 -14 20 -39 5 l-26 -15 42 -86 c40 -83 71 -179 60 -189 -10
-11 -47 17 -47 35 0 33 -59 194 -77 212 -21 20 -140 55 -238 68 -58 8 -74 8
-93 -5 -28 -18 -72 -108 -72 -146 0 -29 -16 -46 -31 -31 -8 8 17 130 39 186
11 25 16 27 68 27 31 0 101 -7 156 -16 54 -8 104 -14 111 -11 6 2 -40 12 -103
22 -115 18 -171 34 -119 35 14 0 34 6 44 14 17 12 16 14 -16 24 -19 6 -52 14
-74 17 -22 3 -51 8 -65 10 -20 3 -19 2 8 -10 41 -19 44 -49 5 -41 -16 3 -165
30 -333 61 -168 30 -312 57 -321 59 -13 3 -23 -24 -53 -138 -34 -130 -48 -167
-60 -155 -3 2 10 65 29 139 19 74 35 154 35 178 0 30 4 42 14 42 12 0 694
-109 781 -125 19 -4 26 -2 20 4 -6 6 -109 26 -230 46 -121 20 -341 56 -490 80
-148 25 -273 45 -277 45 -5 0 -8 5 -8 11 0 7 15 10 40 7 53 -5 51 7 -2 17
l-43 8 85 27 c47 16 90 28 96 29 6 1 130 -15 275 -34z m-58 -224 c76 -16 139
-30 141 -32 2 -2 6 -20 8 -38 l3 -35 -149 -47 c-81 -26 -158 -50 -170 -53
l-23 -6 20 120 c11 66 23 120 26 120 3 -1 68 -14 144 -29z m842 -270 c59 -27
73 -49 92 -140 l16 -81 33 6 34 6 0 -64 c0 -83 -14 -124 -59 -171 -69 -73
-212 -88 -306 -33 -145 85 -183 312 -71 416 24 22 37 25 95 25 57 0 77 -5 132
-34 62 -32 63 -32 39 -7 -25 27 -87 49 -175 61 l-50 8 35 13 c52 19 138 17
185 -5z"/>
<path d="M2013 902 c-45 -21 -85 -40 -89 -44 -5 -6 -35 -498 -30 -505 4 -5
202 129 205 139 2 6 -14 1 -35 -11 -21 -13 -63 -37 -93 -54 l-54 -31 6 85 c4
46 9 134 12 194 9 179 4 165 95 210 44 21 80 43 80 47 0 12 -8 10 -97 -30z"/>
<path d="M1108 394 c-105 -57 -56 -257 68 -280 40 -7 92 19 112 57 29 55 -11
175 -70 213 -37 23 -80 27 -110 10z"/>
</g>
</svg>
