<?xml version="1.0" standalone="no"?>
<!DOCTYPE svg PUBLIC "-//W3C//DTD SVG 20010904//EN"
 "http://www.w3.org/TR/2001/REC-SVG-20010904/DTD/svg10.dtd">
<svg version="1.0" xmlns="http://www.w3.org/2000/svg"
 width="225.000000pt" height="224.000000pt" viewBox="0 0 225.000000 224.000000"
 preserveAspectRatio="xMidYMid meet">
<metadata>
Created by potrace 1.15, written by Peter Selinger 2001-2017
</metadata>
<g transform="translate(0.000000,224.000000) scale(0.100000,-0.100000)"
fill="#000000" stroke="none">
<path d="M755 2224 c-72 -37 -105 -92 -105 -171 0 -57 19 -101 88 -207 57 -87
67 -138 37 -196 -12 -24 -13 -30 -2 -30 23 0 59 32 73 66 26 63 18 116 -32
211 -26 49 -53 101 -61 116 -29 54 -27 97 6 162 16 32 29 60 28 62 -2 1 -16
-5 -32 -13z"/>
<path d="M1104 2214 c-76 -49 -108 -127 -85 -209 10 -38 29 -73 106 -195 40
-64 45 -109 15 -157 -25 -41 -6 -45 39 -8 65 55 65 135 -1 255 -23 41 -50 91
-60 110 -27 52 -23 114 12 177 17 29 27 53 22 53 -4 0 -26 -12 -48 -26z"/>
<path d="M1480 2221 c-57 -30 -93 -83 -98 -145 -6 -70 7 -105 78 -217 51 -79
60 -99 60 -139 0 -26 -7 -55 -16 -68 -21 -31 -10 -40 24 -20 37 22 62 74 62
130 0 36 -10 65 -42 125 -22 43 -52 98 -65 122 -30 58 -29 96 7 167 16 32 28
59 26 61 -1 1 -18 -6 -36 -16z"/>
<path d="M1000 1473 l-45 -4 0 -78 c0 -72 -12 -111 -34 -111 -13 0 -45 66 -56
115 -9 39 -16 51 -33 53 -23 4 -228 -49 -292 -74 l-39 -16 34 -44 c32 -42 55
-108 42 -121 -13 -13 -73 23 -122 73 l-51 53 -72 -39 c-171 -93 -259 -164
-298 -242 -49 -97 -41 -187 23 -253 49 -50 105 -75 174 -75 72 0 124 19 218
79 224 143 424 203 676 203 250 0 447 -59 678 -204 99 -62 144 -78 216 -78
137 1 244 112 227 237 -17 124 -142 244 -367 353 l-46 23 -54 -56 c-49 -50
-101 -79 -115 -64 -9 9 16 78 43 121 31 47 33 46 -112 85 -158 43 -185 47
-185 27 0 -26 -45 -108 -74 -135 -23 -22 -26 -22 -32 -7 -4 10 -4 53 -1 95 l6
78 -82 6 c-82 7 -142 7 -227 0z"/>
<path d="M1080 810 l0 -90 -60 0 -60 0 0 79 c0 44 -4 82 -8 85 -5 3 -26 3 -46
-1 l-38 -6 4 -162 c3 -160 3 -162 32 -199 32 -43 95 -75 144 -76 l32 0 0 -220
0 -220 45 0 45 0 0 220 0 220 30 0 c39 0 98 24 128 53 47 43 52 66 52 232 0
141 -2 155 -17 155 -10 0 -28 3 -40 6 -23 6 -23 5 -23 -80 l0 -86 -65 0 -65 0
0 90 0 90 -45 0 -45 0 0 -90z"/>
</g>
</svg>
