<?xml version="1.0" standalone="no"?>
<!DOCTYPE svg PUBLIC "-//W3C//DTD SVG 20010904//EN"
 "http://www.w3.org/TR/2001/REC-SVG-20010904/DTD/svg10.dtd">
<svg version="1.0" xmlns="http://www.w3.org/2000/svg"
 width="225.000000pt" height="225.000000pt" viewBox="0 0 225.000000 225.000000"
 preserveAspectRatio="xMidYMid meet">
<metadata>
Created by potrace 1.15, written by Peter Selinger 2001-2017
</metadata>
<g transform="translate(0.000000,225.000000) scale(0.100000,-0.100000)"
fill="#000000" stroke="none">
<path d="M1087 2233 c-12 -14 -18 -58 -27 -178 -41 -596 -177 -778 -533 -711
-100 19 -124 15 -133 -21 -18 -72 33 -268 76 -290 16 -8 30 -9 42 -2 36 19 38
42 11 122 -15 42 -24 79 -22 81 2 2 38 -1 79 -6 150 -19 292 23 380 111 111
112 172 307 206 653 l6 66 61 -91 c44 -67 115 -146 257 -288 234 -234 260
-274 260 -390 0 -51 -8 -96 -24 -144 -25 -73 -23 -95 12 -114 55 -29 110 82
119 239 10 161 -26 222 -276 470 -201 199 -263 276 -327 407 -25 50 -52 94
-60 97 -32 12 -91 6 -107 -11z"/>
<path d="M688 1973 c-10 -13 -18 -64 -27 -168 -12 -158 -29 -250 -57 -309 -25
-51 -8 -86 41 -86 34 0 38 3 60 53 29 65 53 180 62 298 l6 90 41 -40 c45 -45
74 -51 99 -23 27 30 21 48 -44 127 l-62 75 -52 0 c-37 0 -56 -5 -67 -17z"/>
<path d="M1288 1549 c-37 -21 -22 -63 42 -125 105 -100 122 -172 69 -294 -29
-67 -17 -100 36 -100 31 0 37 4 59 48 30 60 49 161 41 216 -11 64 -52 130
-125 201 -67 64 -89 74 -122 54z"/>
<path d="M238 929 c-53 -31 32 -276 149 -431 l49 -64 -35 -162 -34 -162 -59 0
c-86 0 -124 -44 -78 -90 18 -18 33 -20 180 -20 147 0 162 2 180 20 42 42 8 90
-65 90 -25 0 -45 3 -45 8 0 11 43 216 47 221 1 2 29 -15 62 -38 80 -56 209
-116 306 -143 114 -31 344 -31 460 1 96 26 225 86 306 142 33 23 61 40 62 38
4 -5 47 -210 47 -221 0 -5 -20 -8 -45 -8 -73 0 -107 -48 -65 -90 18 -18 33
-20 180 -20 147 0 162 2 180 20 46 46 8 90 -78 90 l-59 0 -34 162 -35 162 49
64 c58 78 117 193 146 286 27 87 27 132 2 146 -27 14 -1749 13 -1773 -1z
m1667 -121 c-4 -13 -22 -56 -41 -97 -106 -227 -297 -385 -542 -447 -320 -81
-667 45 -858 312 -41 57 -104 181 -119 232 l-6 22 786 0 786 0 -6 -22z"/>
<path d="M602 714 c-31 -21 -27 -54 11 -103 106 -134 321 -240 488 -241 71 0
102 47 59 90 -14 14 -33 20 -66 20 -123 0 -255 61 -362 167 -40 40 -81 75 -90
78 -10 3 -28 -2 -40 -11z"/>
</g>
</svg>
