<?xml version="1.0" standalone="no"?>
<!DOCTYPE svg PUBLIC "-//W3C//DTD SVG 20010904//EN"
 "http://www.w3.org/TR/2001/REC-SVG-20010904/DTD/svg10.dtd">
<svg version="1.0" xmlns="http://www.w3.org/2000/svg"
 width="512.000000pt" height="512.000000pt" viewBox="0 0 512.000000 512.000000"
 preserveAspectRatio="xMidYMid meet">
<metadata>
Created by potrace 1.15, written by Peter Selinger 2001-2017
</metadata>
<g transform="translate(0.000000,512.000000) scale(0.100000,-0.100000)"
fill="#000000" stroke="none">
<path d="M303 5052 c-86 -74 -272 -269 -286 -299 -33 -73 41 -14 241 191 78
80 142 151 142 156 0 23 -34 6 -97 -48z"/>
<path d="M503 5051 c-104 -90 -480 -475 -488 -500 -12 -37 2 -35 52 7 72 60
533 529 533 541 0 24 -33 8 -97 -48z"/>
<path d="M703 5051 c-112 -97 -680 -674 -687 -699 -23 -71 24 -29 442 391 188
189 342 349 342 356 0 24 -32 8 -97 -48z"/>
<path d="M903 5051 c-116 -100 -880 -875 -888 -899 -22 -72 19 -35 543 491
243 244 442 449 442 455 0 25 -32 10 -97 -47z"/>
<path d="M1103 5051 c-118 -102 -1080 -1075 -1088 -1099 -11 -38 2 -37 52 6
79 66 1133 1127 1133 1140 0 25 -32 10 -97 -47z"/>
<path d="M1303 5051 c-119 -104 -1280 -1275 -1288 -1299 -11 -38 2 -37 52 6
80 67 1333 1327 1333 1340 0 25 -32 10 -97 -47z"/>
<path d="M1503 5051 c-121 -105 -1480 -1475 -1488 -1499 -11 -38 2 -37 52 6
81 68 1533 1527 1533 1540 0 25 -32 10 -97 -47z"/>
<path d="M1703 5051 c-121 -105 -1680 -1675 -1688 -1699 -11 -38 2 -37 52 6
81 68 1733 1727 1733 1740 0 25 -32 10 -97 -47z"/>
<path d="M1903 5051 c-122 -106 -1881 -1875 -1888 -1899 -11 -38 2 -37 52 6
82 69 1933 1927 1933 1940 0 25 -32 10 -97 -47z"/>
<path d="M2103 5051 c-123 -107 -2081 -2075 -2088 -2099 -11 -38 2 -37 52 6
82 69 2133 2127 2133 2140 0 25 -32 10 -97 -47z"/>
<path d="M2303 5051 c-123 -107 -2281 -2276 -2288 -2299 -11 -38 2 -37 52 6
82 69 2333 2327 2333 2340 0 25 -32 10 -97 -47z"/>
<path d="M2503 5051 c-124 -107 -2481 -2476 -2488 -2499 -11 -38 2 -37 52 6
82 70 2533 2527 2533 2540 0 25 -32 10 -97 -47z"/>
<path d="M2703 5051 c-124 -108 -2681 -2676 -2688 -2699 -11 -38 2 -37 52 6
83 70 2733 2727 2733 2740 0 25 -32 10 -97 -47z"/>
<path d="M2903 5051 c-124 -108 -2881 -2876 -2888 -2899 -11 -38 2 -37 52 6
83 70 2933 2927 2933 2940 0 25 -32 10 -97 -47z"/>
<path d="M3103 5051 c-125 -108 -3081 -3076 -3088 -3099 -11 -38 2 -37 52 6
83 70 3133 3127 3133 3140 0 25 -32 10 -97 -47z"/>
<path d="M3303 5051 c-125 -109 -3281 -3276 -3288 -3299 -11 -38 2 -37 52 6
83 70 3333 3327 3333 3340 0 25 -32 10 -97 -47z"/>
<path d="M3503 5051 c-125 -109 -3481 -3476 -3488 -3499 -11 -38 2 -37 52 6
83 70 3533 3527 3533 3540 0 25 -32 10 -97 -47z"/>
<path d="M3703 5051 c-125 -109 -3681 -3676 -3688 -3699 -11 -38 2 -37 52 6
83 71 3733 3727 3733 3740 0 25 -32 10 -97 -47z"/>
<path d="M3903 5051 c-125 -109 -3881 -3876 -3888 -3899 -11 -38 2 -37 52 6
83 71 3933 3927 3933 3940 0 25 -32 10 -97 -47z"/>
<path d="M4103 5051 c-125 -109 -4081 -4076 -4088 -4099 -11 -38 2 -37 52 6
84 71 4133 4127 4133 4140 0 25 -32 10 -97 -47z"/>
<path d="M4303 5051 c-76 -66 -4211 -4204 -4261 -4264 -33 -39 -41 -67 -20
-67 6 0 295 282 641 628 346 345 622 613 613 595 -9 -18 -16 -54 -16 -80 l0
-48 -566 -565 c-311 -311 -592 -595 -625 -633 -57 -65 -72 -97 -47 -97 6 0
291 279 633 621 l622 620 28 -37 28 -36 -384 -384 c-211 -211 -392 -384 -403
-386 -12 -2 -27 -16 -35 -33 -7 -16 -109 -127 -225 -245 -117 -118 -227 -232
-244 -253 -32 -38 -41 -67 -21 -67 6 0 115 103 243 230 l232 230 11 -53 11
-52 -222 -225 c-122 -124 -237 -242 -254 -263 -32 -38 -41 -67 -21 -67 6 0
126 114 268 254 l256 254 31 -34 30 -33 -229 -228 c-235 -235 -314 -320 -304
-329 17 -17 76 34 314 269 255 252 263 259 290 249 15 -5 37 -13 47 -16 15 -5
-24 -50 -218 -245 -130 -132 -236 -244 -236 -250 0 -20 29 -11 67 21 21 17
137 129 258 249 193 190 225 218 259 224 118 20 217 118 232 229 6 41 20 58
294 331 l289 288 34 -30 35 -30 -595 -594 c-688 -688 -714 -716 -641 -694 13
4 307 290 653 634 l630 627 59 -4 58 -4 -616 -617 c-339 -340 -616 -623 -616
-629 0 -25 32 -10 97 47 76 66 4271 4264 4321 4324 33 38 41 67 21 67 -7 0
-185 -172 -397 -382 -212 -211 -373 -368 -358 -349 37 46 73 119 81 167 7 35
42 74 314 349 169 171 322 327 339 348 32 38 41 67 21 67 -6 0 -157 -144 -334
-320 l-322 -321 -7 58 -7 57 309 311 c170 170 323 327 340 348 32 38 41 67 21
67 -7 0 -164 -152 -350 -337 -186 -185 -340 -335 -342 -332 -2 2 -13 20 -24
40 l-21 36 315 314 c173 173 341 344 374 382 56 64 72 97 48 97 -6 0 -117
-106 -248 -235 -218 -216 -238 -233 -249 -215 -25 41 -53 25 -192 -115 -74
-74 -136 -132 -139 -130 -2 3 158 169 357 369 199 200 362 368 362 375 0 20
-29 12 -67 -21 -21 -17 -187 -180 -369 -361 l-331 -329 -43 22 -42 22 326 327
c179 181 326 333 326 340 0 47 -85 -27 -437 -381 l-273 -273 -61 3 -61 4 316
318 c174 174 316 323 316 329 0 47 -86 -27 -435 -379 -252 -253 -275 -273
-344 -306 -41 -19 -93 -50 -116 -69 -48 -39 -103 -118 -129 -185 -12 -30 -46
-74 -104 -132 l-86 -88 -33 32 -33 32 540 541 c297 298 540 547 540 553 0 25
-32 10 -97 -47z m-1025 -1218 c-38 -38 -47 -43 -88 -43 -26 0 -63 -9 -85 -20
-35 -18 -27 -8 55 75 l94 95 33 -32 33 -32 -42 -43z m872 -328 l-164 -165 -34
33 -33 32 79 77 c56 55 87 78 104 78 31 0 158 62 183 90 10 11 21 20 24 20 3
0 -68 -74 -159 -165z m-1397 -87 c-9 -17 -17 -54 -18 -80 -1 -43 -7 -54 -42
-90 l-41 -41 -36 29 -36 29 92 92 c51 51 93 93 95 93 1 0 -6 -14 -14 -32z
m-203 -250 l29 -33 -86 -87 c-68 -69 -97 -91 -142 -107 -109 -40 -209 -142
-249 -253 -12 -36 -39 -71 -104 -135 l-87 -86 -34 29 -35 29 337 338 c185 185
337 337 339 337 1 0 15 -15 32 -32z m598 -601 l32 -33 -162 -159 c-89 -88
-153 -149 -141 -135 29 34 69 115 83 170 9 35 28 62 83 118 39 39 72 72 72 72
1 0 15 -15 33 -33z m-1338 -139 l29 -33 -42 -42 c-36 -38 -47 -43 -84 -43 -24
0 -60 -7 -81 -15 -33 -14 -28 -7 53 75 49 49 91 90 92 90 2 0 16 -15 33 -32z
m863 -400 l-163 -163 -32 33 -33 32 75 75 c41 41 82 75 92 75 33 0 129 42 171
75 23 18 44 34 47 34 3 1 -68 -72 -157 -161z m-1268 -408 l29 -31 -423 -422
-423 -422 5 69 5 69 383 383 c211 211 386 384 390 384 3 0 18 -14 34 -30z
m200 -200 l29 -31 -274 -274 -274 -274 -18 46 -18 47 258 258 c141 142 259
258 262 258 4 0 19 -14 35 -30z m-662 -507 c4 -4 -54 -69 -130 -145 l-137
-138 -28 27 c-15 15 -28 31 -28 37 0 6 69 80 153 164 l152 152 5 -44 c3 -25 9
-49 13 -53z m54 -113 c6 -41 5 -42 -78 -126 -73 -74 -88 -84 -119 -84 -93 0
-93 2 46 141 72 72 132 125 137 120 5 -5 11 -28 14 -51z"/>
<path d="M3022 2178 c-1140 -1140 -2092 -2095 -2114 -2121 -43 -50 -44 -63 -6
-52 23 7 4050 4022 4159 4148 57 65 72 97 47 97 -7 0 -946 -933 -2086 -2072z"/>
<path d="M3122 2078 c-1085 -1085 -1992 -1995 -2014 -2021 -43 -50 -44 -63 -6
-52 23 7 3850 3823 3959 3948 57 65 72 97 47 97 -7 0 -901 -888 -1986 -1972z"/>
<path d="M3222 1978 c-1030 -1030 -1892 -1895 -1914 -1921 -43 -50 -44 -63 -6
-52 23 7 3650 3623 3759 3748 57 65 72 97 47 97 -7 0 -856 -843 -1886 -1872z"/>
<path d="M3322 1878 c-975 -975 -1792 -1795 -1814 -1821 -43 -50 -44 -63 -6
-52 23 7 3450 3423 3559 3548 57 65 72 97 47 97 -7 0 -811 -798 -1786 -1772z"/>
<path d="M3422 1778 c-920 -920 -1692 -1695 -1714 -1721 -43 -50 -44 -63 -6
-52 23 7 3250 3223 3359 3348 57 65 72 97 47 97 -7 0 -766 -753 -1686 -1672z"/>
<path d="M3522 1678 c-865 -865 -1592 -1595 -1614 -1621 -43 -50 -44 -63 -6
-52 23 7 3051 3023 3159 3148 57 65 72 97 47 97 -7 0 -721 -708 -1586 -1572z"/>
<path d="M3622 1578 c-810 -810 -1492 -1495 -1514 -1521 -43 -50 -44 -63 -6
-52 23 7 2851 2824 2959 2948 57 65 72 97 47 97 -7 0 -676 -663 -1486 -1472z"/>
<path d="M3722 1478 c-755 -755 -1392 -1395 -1414 -1421 -43 -50 -44 -63 -6
-52 23 7 2651 2624 2759 2748 57 65 72 97 47 97 -7 0 -630 -618 -1386 -1372z"/>
<path d="M3822 1378 c-700 -700 -1292 -1295 -1314 -1321 -43 -50 -44 -63 -6
-52 23 7 2451 2424 2559 2548 57 65 72 97 47 97 -7 0 -585 -573 -1286 -1272z"/>
<path d="M3922 1278 c-645 -645 -1192 -1195 -1214 -1221 -43 -50 -44 -63 -6
-52 23 7 2252 2225 2359 2348 57 65 72 97 47 97 -7 0 -540 -528 -1186 -1172z"/>
<path d="M4022 1178 c-590 -590 -1092 -1095 -1114 -1121 -43 -50 -44 -63 -6
-52 24 7 2052 2025 2159 2148 57 65 72 97 47 97 -7 0 -495 -483 -1086 -1072z"/>
<path d="M4122 1078 c-535 -535 -992 -995 -1014 -1021 -43 -50 -44 -63 -6 -52
24 7 1853 1826 1959 1948 57 65 72 97 47 97 -7 0 -450 -438 -986 -972z"/>
<path d="M4222 978 c-480 -480 -892 -895 -914 -921 -43 -50 -44 -63 -6 -52 24
8 1653 1626 1759 1748 57 65 72 97 47 97 -7 0 -405 -393 -886 -872z"/>
<path d="M4322 878 c-754 -754 -860 -863 -849 -874 3 -3 16 -3 29 1 24 8 1454
1427 1559 1548 57 65 72 97 47 97 -7 0 -360 -348 -786 -772z"/>
<path d="M4422 778 c-658 -658 -760 -763 -749 -774 3 -3 16 -3 29 1 24 8 1255
1228 1359 1348 57 65 72 97 47 97 -6 0 -315 -303 -686 -672z"/>
<path d="M4522 678 c-664 -663 -694 -695 -620 -673 24 8 1056 1030 1159 1148
57 65 72 97 47 97 -6 0 -270 -258 -586 -572z"/>
<path d="M4623 578 c-558 -557 -594 -595 -521 -573 24 8 858 832 959 948 57
65 72 97 47 97 -6 0 -225 -213 -485 -472z"/>
<path d="M4723 478 c-452 -450 -492 -495 -421 -472 25 7 661 634 759 747 56
65 72 97 48 97 -7 0 -180 -168 -386 -372z"/>
<path d="M4823 378 c-345 -342 -390 -394 -322 -373 25 8 468 441 560 548 56
64 72 97 48 97 -6 0 -135 -123 -286 -272z"/>
<path d="M4924 278 c-185 -182 -261 -265 -250 -275 14 -14 62 23 192 149 203
197 286 298 244 298 -6 0 -90 -78 -186 -172z"/>
</g>
</svg>
