<?xml version="1.0" standalone="no"?>
<!DOCTYPE svg PUBLIC "-//W3C//DTD SVG 20010904//EN"
 "http://www.w3.org/TR/2001/REC-SVG-20010904/DTD/svg10.dtd">
<svg version="1.0" xmlns="http://www.w3.org/2000/svg"
 width="512.000000pt" height="512.000000pt" viewBox="0 0 512.000000 512.000000"
 preserveAspectRatio="xMidYMid meet">
<metadata>
Created by potrace 1.15, written by Peter Selinger 2001-2017
</metadata>
<g transform="translate(0.000000,512.000000) scale(0.100000,-0.100000)"
fill="#000000" stroke="none">
<path d="M203 4958 c-174 -172 -196 -198 -191 -231 3 -19 32 5 192 163 103
102 192 193 197 203 8 14 5 17 -17 17 -21 0 -60 -33 -181 -152z"/>
<path d="M303 4858 c-140 -139 -264 -265 -275 -281 -10 -15 -18 -37 -16 -50 3
-18 49 23 292 263 158 157 292 293 297 303 8 14 5 17 -17 17 -22 0 -75 -47
-281 -252z"/>
<path d="M402 4758 c-194 -194 -362 -365 -373 -381 -11 -15 -19 -37 -17 -50 4
-18 67 40 392 363 213 212 392 393 397 403 8 14 5 17 -18 17 -22 0 -89 -62
-381 -352z"/>
<path d="M502 4658 c-249 -249 -462 -465 -473 -481 -11 -15 -19 -37 -17 -50 4
-18 84 57 492 463 268 267 492 493 497 503 8 14 5 17 -18 17 -22 0 -104 -76
-481 -452z"/>
<path d="M602 4558 c-304 -304 -562 -565 -573 -581 -11 -15 -19 -37 -17 -50 4
-18 101 75 592 563 323 322 592 593 597 603 8 14 5 17 -18 17 -23 0 -118 -91
-581 -552z"/>
<path d="M702 4458 c-359 -359 -662 -665 -673 -681 -11 -15 -19 -37 -17 -50 4
-18 118 92 692 663 378 377 692 693 697 703 8 14 5 17 -18 17 -23 0 -133 -106
-681 -652z"/>
<path d="M802 4358 c-414 -414 -762 -765 -773 -781 -11 -15 -19 -37 -17 -50 4
-18 136 109 792 763 433 432 792 793 797 803 8 14 5 17 -18 17 -23 0 -148
-120 -781 -752z"/>
<path d="M902 4258 c-469 -469 -862 -865 -873 -881 -11 -15 -19 -37 -17 -50 4
-18 153 126 892 863 488 487 892 893 897 903 8 14 5 17 -18 17 -23 0 -162
-135 -881 -852z"/>
<path d="M1002 4158 c-524 -524 -962 -965 -973 -981 -11 -15 -19 -37 -17 -50
4 -18 170 144 992 963 543 542 992 993 997 1003 8 14 5 17 -18 17 -23 0 -177
-149 -981 -952z"/>
<path d="M1102 4058 c-579 -579 -1062 -1065 -1073 -1081 -11 -15 -19 -37 -17
-50 3 -19 34 8 203 175 l200 197 -3 -67 -4 -67 -199 -201 c-158 -160 -199
-206 -199 -228 0 -14 3 -26 7 -26 4 0 94 86 200 192 l193 192 0 -64 0 -64
-200 -201 c-160 -162 -200 -207 -200 -229 0 -22 3 -25 18 -17 9 5 102 95 207
200 l189 191 21 -43 21 -42 -228 -231 c-182 -185 -228 -236 -228 -257 0 -15 3
-27 7 -27 4 0 113 106 243 235 l236 235 23 -41 23 -41 -266 -267 c-215 -216
-266 -273 -266 -294 0 -15 3 -27 7 -27 4 0 123 116 265 257 142 142 258 251
258 243 0 -8 -4 -42 -10 -74 l-10 -60 -255 -256 c-206 -207 -255 -262 -255
-283 0 -15 3 -27 7 -27 4 0 118 111 254 246 l247 247 16 -31 c9 -17 21 -32 28
-35 8 -3 -106 -124 -269 -289 -229 -230 -283 -290 -283 -311 0 -15 3 -27 7
-27 4 0 142 135 308 299 229 229 309 302 337 311 42 13 78 52 78 84 0 14 73
94 224 245 l224 223 26 -38 26 -39 -615 -615 c-515 -516 -615 -620 -615 -643
0 -23 3 -26 18 -18 9 5 289 282 622 615 333 333 608 606 612 606 5 0 8 -26 8
-57 l0 -58 -630 -630 c-524 -525 -630 -635 -630 -658 0 -15 3 -27 7 -27 4 0
283 276 620 612 436 436 613 607 613 592 0 -12 9 -32 19 -46 l20 -24 -237
-236 c-195 -194 -246 -240 -289 -258 -61 -26 -111 -77 -149 -152 -20 -40 -97
-124 -315 -344 -234 -235 -289 -295 -289 -317 0 -15 3 -27 7 -27 4 0 128 120
275 267 147 147 268 263 268 258 0 -6 -5 -39 -11 -75 l-10 -65 -265 -266
c-213 -215 -264 -271 -264 -292 0 -15 3 -27 7 -27 4 0 120 113 259 251 l251
251 6 -59 6 -58 -152 -153 c-132 -133 -165 -160 -250 -208 -54 -31 -106 -65
-117 -77 -20 -21 -26 -77 -14 -123 7 -26 53 -54 89 -54 26 0 25 -2 -29 -61
-36 -39 -56 -69 -56 -85 0 -13 3 -24 7 -24 3 0 61 53 127 119 102 100 137 127
226 176 58 32 121 67 140 78 19 11 -85 -101 -232 -250 -216 -218 -268 -275
-268 -296 0 -15 3 -27 7 -27 4 0 154 147 334 326 l327 327 30 -34 31 -34 -365
-366 c-298 -299 -364 -370 -364 -392 0 -15 3 -27 7 -27 4 0 177 169 384 376
l377 377 46 -19 46 -19 -405 -405 c-223 -223 -405 -409 -405 -413 0 -4 12 -7
27 -7 22 0 99 72 433 405 l406 406 58 -7 58 -7 -391 -391 c-215 -215 -391
-395 -391 -399 0 -4 12 -7 27 -7 22 0 98 71 422 394 l396 394 70 6 69 6 -392
-393 c-216 -216 -392 -396 -392 -400 0 -4 12 -7 27 -7 23 0 135 108 668 640
606 606 643 640 692 655 61 18 98 57 114 120 8 30 25 57 62 92 l52 50 44 -19
44 -20 -752 -752 c-413 -413 -751 -755 -751 -759 0 -4 12 -7 27 -7 23 0 153
125 783 755 l755 754 58 -6 59 -6 -741 -741 c-408 -408 -741 -745 -741 -749 0
-4 12 -7 27 -7 23 0 151 124 773 744 l745 744 52 7 c29 4 69 15 90 26 25 12
-233 -252 -724 -743 -420 -420 -763 -767 -763 -771 0 -4 12 -7 27 -7 23 0 189
161 1018 990 545 545 998 990 1007 990 26 0 79 51 99 95 10 22 40 62 67 88
l49 48 41 -24 41 -23 -1065 -1065 c-586 -585 -1070 -1072 -1075 -1081 -8 -15
-5 -18 18 -18 23 0 195 167 1104 1076 l1076 1076 39 -7 c21 -4 46 -9 53 -11
10 -3 -365 -385 -1042 -1062 -581 -581 -1057 -1061 -1057 -1065 0 -4 12 -7 27
-7 23 0 199 171 1089 1061 l1062 1062 67 2 67 2 -1058 -1060 c-881 -882 -1055
-1061 -1037 -1065 13 -2 35 6 50 17 16 11 785 777 1710 1703 1435 1435 1683
1687 1683 1711 0 18 -4 26 -11 21 -8 -5 -8 -1 0 14 14 27 14 105 0 119 -8 8
-8 13 0 17 6 4 11 19 11 33 0 24 -1 25 -24 10 -15 -10 -36 -14 -63 -10 -27 3
-51 0 -74 -12 -26 -14 -12 5 64 83 71 74 97 108 97 126 0 15 -3 26 -7 26 -4 0
-86 -78 -182 -174 -169 -166 -181 -176 -306 -246 -71 -40 -134 -75 -140 -78
-5 -3 135 141 313 320 262 264 322 329 322 351 0 15 -3 27 -7 27 -4 0 -188
-180 -408 -399 l-400 -400 -115 -64 c-63 -35 -126 -70 -140 -77 -14 -7 221
235 522 537 458 458 548 553 548 576 0 23 -3 26 -17 18 -10 -5 -281 -273 -603
-595 l-584 -586 -33 32 -33 32 635 636 c528 529 635 640 635 663 0 15 -3 27
-7 27 -4 0 -299 -291 -654 -646 l-647 -647 -37 28 -36 28 690 691 c576 576
691 696 691 719 0 15 -3 27 -7 27 -4 0 -325 -317 -713 -704 l-705 -704 -44 20
-44 20 757 757 c636 636 756 761 756 784 0 23 -3 26 -17 18 -10 -5 -362 -354
-783 -775 l-765 -766 -65 0 -65 0 848 848 c708 708 847 852 847 875 0 15 -3
27 -7 27 -4 0 -408 -399 -898 -887 -490 -489 -910 -900 -933 -915 -23 -16 -54
-47 -70 -70 -15 -23 -98 -115 -185 -204 -157 -160 -159 -162 -210 -168 -29 -3
-63 -9 -77 -12 -16 -4 393 413 1123 1142 631 632 1147 1153 1147 1157 0 4 -12
7 -27 7 -23 0 -228 -201 -1283 -1256 l-1256 -1255 -42 24 -41 23 402 398 c221
218 412 407 424 419 661 663 1623 1634 1623 1640 0 4 -12 7 -27 7 -23 0 -154
-127 -794 -766 l-766 -766 -17 48 -16 48 710 711 c390 391 710 714 710 718 0
4 -12 7 -27 7 -23 0 -139 -111 -691 -662 -588 -588 -661 -657 -642 -614 11 27
25 70 31 95 9 43 42 78 569 606 308 308 560 564 560 568 0 4 -12 7 -27 7 -23
0 -118 -91 -559 -531 l-532 -531 -11 53 -12 53 471 471 c258 259 470 474 470
478 0 4 -12 7 -27 7 -22 0 -106 -79 -480 -452 -249 -249 -454 -450 -456 -447
-1 2 -11 22 -20 43 l-18 39 400 401 c221 221 401 405 401 409 0 4 -12 7 -27 7
-22 0 -96 -69 -410 -382 -363 -362 -383 -380 -392 -357 -5 14 -16 31 -26 39
-14 12 18 48 319 350 185 184 336 339 336 343 0 4 -12 7 -27 7 -22 0 -88 -61
-363 -335 -280 -280 -340 -335 -364 -335 -36 0 -83 -47 -91 -92 -6 -29 -59
-87 -322 -349 -174 -173 -312 -305 -308 -294 3 11 9 45 12 75 l5 55 629 630
c346 347 629 634 629 638 0 4 -12 7 -27 7 -23 0 -130 -103 -638 -610 l-610
-610 -19 46 -19 46 557 557 c306 306 556 560 556 564 0 4 -12 7 -27 7 -23 0
-120 -93 -570 -542 -439 -439 -543 -538 -543 -518 0 14 -6 37 -14 51 -13 26
-11 29 461 500 261 261 479 482 484 492 8 14 5 17 -18 17 -23 0 -107 -80 -505
-477 -445 -444 -480 -478 -509 -475 -70 8 -119 -40 -119 -115 0 -37 -12 -50
-309 -347 l-308 -308 -6 58 -5 59 794 795 c437 437 794 799 794 803 0 4 -12 7
-27 7 -23 0 -155 -127 -799 -772 l-772 -771 -15 49 -15 49 714 715 c393 394
714 719 714 723 0 4 -12 7 -27 7 -23 0 -144 -116 -725 -697 -384 -384 -698
-691 -698 -682 0 9 -11 28 -24 42 l-23 25 639 638 c352 352 644 647 649 657 8
14 5 17 -18 17 -23 0 -132 -105 -678 -650 -485 -485 -656 -650 -673 -650 -30
0 -81 -50 -88 -88 -4 -21 -76 -99 -260 -283 l-254 -254 0 65 0 65 881 880
c484 484 885 888 890 898 8 14 5 17 -18 17 -23 0 -166 -139 -909 -881 -803
-802 -883 -880 -902 -870 -11 6 -36 11 -54 11 -31 0 21 53 830 863 474 474
862 866 862 870 0 4 -12 7 -27 7 -23 0 -198 -170 -1081 -1052z m1901 151 l15
-36 -389 -389 c-338 -338 -389 -385 -389 -361 0 15 9 53 20 85 19 53 43 80
367 404 191 191 351 344 354 340 4 -4 14 -23 22 -43z m56 -144 l11 -40 -378
-378 -377 -377 -17 22 c-41 53 -53 38 353 444 211 211 387 380 390 376 4 -4
12 -25 18 -47z m-976 -167 l17 -42 -367 -368 c-202 -202 -368 -366 -369 -365
-1 1 11 43 28 92 l30 90 316 318 c174 174 319 317 322 317 3 0 13 -19 23 -42z
m927 -40 c-17 -35 -33 -79 -36 -98 -5 -29 -55 -84 -313 -343 l-306 -307 -11
52 -11 53 351 353 c193 193 352 352 353 352 1 0 -11 -28 -27 -62z m-920 -162
l-32 -83 -327 -327 -327 -327 -27 38 -27 38 382 382 c211 211 385 378 387 372
2 -6 -11 -48 -29 -93z m470 -581 c-424 -424 -433 -433 -489 -448 -95 -26 -182
-123 -216 -237 -4 -14 -68 -87 -143 -162 -104 -105 -143 -138 -162 -138 -14 0
-50 -6 -79 -14 l-54 -14 399 399 c329 329 404 399 426 399 62 0 108 46 108
107 0 23 51 79 307 335 l308 308 14 -51 14 -51 -433 -433z m-1381 440 c1 -13
-88 -109 -266 -287 -148 -148 -271 -268 -275 -268 -5 0 -8 26 -8 57 l0 58 262
262 263 263 12 -32 c6 -18 12 -42 12 -53z m843 -112 l-3 -68 -272 -272 -272
-273 -22 43 -22 42 297 298 c163 163 297 297 297 297 0 0 -1 -30 -3 -67z
m1047 -13 c1 -3 -171 -177 -381 -387 l-383 -382 -53 11 -54 11 403 403 403
403 32 -27 c18 -15 33 -29 33 -32z m-1868 -16 l0 -57 -243 -244 c-133 -134
-246 -243 -249 -243 -4 0 -17 17 -29 37 l-21 36 267 268 c148 148 270 267 272
265 2 -2 3 -30 3 -62z m3354 -504 c-285 -285 -520 -518 -522 -516 -1 1 2 18 7
37 6 18 10 50 10 69 0 33 24 59 368 403 l368 368 140 79 c76 44 141 79 144 80
3 0 -229 -234 -515 -520z m-2502 358 l17 -43 -287 -287 -288 -288 -3 62 -2 63
267 267 c147 148 270 268 273 268 3 0 13 -19 23 -42z m-899 -54 c-8 -19 -19
-58 -25 -87 -9 -50 -16 -59 -186 -229 l-177 -177 -16 47 -16 47 215 218 c119
119 217 217 218 217 1 0 -5 -16 -13 -36z m968 -85 l12 -40 -561 -561 -561
-561 -57 8 -58 7 218 218 c189 189 224 220 256 225 48 8 82 42 98 97 11 37 57
88 319 350 168 169 309 305 314 302 4 -3 13 -23 20 -45z m2223 -229 l-280
-280 -3 62 -3 62 138 138 c130 131 146 143 278 217 77 44 142 79 145 80 3 1
-121 -125 -275 -279z m-1224 40 c-15 -74 -19 -83 -70 -134 l-53 -54 -39 26
-38 27 107 108 c59 59 107 107 107 107 1 0 -6 -36 -14 -80z m-1967 -10 c4 -10
-55 -76 -197 -218 l-204 -203 10 73 9 73 176 177 176 177 12 -32 c6 -18 14
-39 18 -47z m1000 11 c14 -15 -27 -59 -493 -525 l-508 -508 -43 22 -43 22 529
529 c496 496 529 527 536 503 4 -14 14 -34 22 -43z m-336 -706 c-9 -62 -15
-75 -51 -112 l-40 -42 -28 19 c-15 11 -32 20 -38 20 -6 0 -11 3 -11 7 0 8 172
184 176 180 1 -1 -3 -33 -8 -72z m1187 -266 c2 -3 -72 -81 -166 -174 -140
-139 -165 -161 -140 -120 17 28 37 77 46 110 13 53 24 68 96 141 l81 82 39
-17 c22 -10 41 -20 44 -22z m-1310 -656 c19 -9 35 -19 35 -22 0 -4 -64 -69
-141 -146 -78 -77 -138 -131 -134 -120 4 11 14 49 22 85 14 60 21 71 91 143
42 42 80 77 84 77 4 0 23 -8 43 -17z"/>
<path d="M3496 1650 c-889 -888 -1622 -1623 -1627 -1632 -8 -15 -5 -18 18 -18
24 0 269 241 1611 1583 871 870 1592 1594 1603 1610 11 15 19 37 17 50 -4 18
-279 -252 -1622 -1593z"/>
<path d="M3596 1550 c-834 -833 -1522 -1523 -1527 -1532 -8 -15 -5 -18 18 -18
23 0 254 226 1511 1483 816 815 1492 1494 1503 1510 11 15 19 37 17 50 -4 18
-262 -235 -1522 -1493z"/>
<path d="M3696 1450 c-779 -778 -1422 -1423 -1427 -1432 -8 -15 -5 -18 18 -18
23 0 239 212 1411 1383 761 760 1392 1394 1403 1410 11 15 19 37 17 50 -4 18
-245 -218 -1422 -1393z"/>
<path d="M3796 1350 c-724 -723 -1322 -1323 -1327 -1332 -8 -15 -5 -18 18 -18
23 0 225 197 1311 1283 706 705 1292 1294 1303 1310 11 15 19 37 17 50 -4 18
-227 -201 -1322 -1293z"/>
<path d="M3896 1250 c-669 -668 -1222 -1223 -1227 -1232 -8 -15 -5 -18 18 -18
23 0 210 183 1211 1182 651 651 1192 1195 1203 1211 11 15 19 37 17 50 -4 18
-210 -183 -1222 -1193z"/>
<path d="M3996 1150 c-614 -613 -1122 -1123 -1127 -1132 -8 -15 -5 -18 18 -18
23 0 196 168 1111 1082 596 596 1092 1095 1103 1111 11 15 19 37 17 50 -4 18
-193 -166 -1122 -1093z"/>
<path d="M4096 1050 c-559 -558 -1022 -1023 -1027 -1033 -8 -14 -5 -17 18 -17
23 0 181 153 1011 983 541 540 992 994 1003 1010 11 15 19 37 17 50 -4 18
-175 -149 -1022 -993z"/>
<path d="M4196 950 c-504 -503 -922 -923 -927 -932 -8 -15 -5 -18 18 -18 23 0
167 139 911 882 486 486 892 895 903 911 11 15 19 37 17 50 -4 18 -158 -132
-922 -893z"/>
<path d="M4296 850 c-449 -448 -822 -823 -827 -832 -8 -15 -5 -18 18 -18 23 0
152 124 811 783 431 430 792 794 803 810 11 15 19 37 17 50 -4 18 -141 -114
-822 -793z"/>
<path d="M4396 750 c-394 -393 -722 -723 -727 -732 -8 -15 -5 -18 18 -18 23 0
137 110 711 683 376 375 692 694 703 710 11 15 19 37 17 50 -4 18 -124 -97
-722 -693z"/>
<path d="M4496 650 c-339 -338 -622 -623 -627 -632 -8 -15 -5 -18 18 -18 23 0
123 95 611 583 321 320 592 594 603 610 11 15 19 37 17 50 -4 18 -106 -80
-622 -593z"/>
<path d="M4596 550 c-284 -283 -522 -523 -527 -533 -8 -14 -5 -17 18 -17 23 0
108 81 511 483 266 265 492 494 503 510 11 15 19 37 17 50 -4 18 -89 -62 -522
-493z"/>
<path d="M4696 450 c-229 -228 -422 -423 -427 -432 -8 -15 -5 -18 18 -18 22 0
93 66 411 383 211 210 392 394 403 410 11 15 19 37 17 50 -4 18 -72 -45 -422
-393z"/>
<path d="M4796 350 c-174 -173 -322 -323 -327 -332 -8 -15 -5 -18 17 -18 23 0
80 52 312 282 156 156 293 295 303 311 11 15 19 37 17 50 -4 18 -54 -28 -322
-293z"/>
<path d="M4896 250 c-119 -118 -222 -223 -227 -232 -8 -15 -5 -18 17 -18 21 0
65 37 211 183 205 202 226 227 221 260 -3 19 -37 -11 -222 -193z"/>
<path d="M4996 150 c-136 -133 -149 -150 -111 -150 18 0 49 23 111 82 102 98
127 130 122 161 -3 19 -19 7 -122 -93z"/>
</g>
</svg>
