<?xml version="1.0" standalone="no"?>
<!DOCTYPE svg PUBLIC "-//W3C//DTD SVG 20010904//EN"
 "http://www.w3.org/TR/2001/REC-SVG-20010904/DTD/svg10.dtd">
<svg version="1.0" xmlns="http://www.w3.org/2000/svg"
 width="225.000000pt" height="225.000000pt" viewBox="0 0 225.000000 225.000000"
 preserveAspectRatio="xMidYMid meet">
<metadata>
Created by potrace 1.15, written by Peter Selinger 2001-2017
</metadata>
<g transform="translate(0.000000,225.000000) scale(0.100000,-0.100000)"
fill="#000000" stroke="none">
<path d="M698 1845 c-282 -47 -495 -203 -585 -427 -38 -94 -42 -139 -34 -408
7 -231 10 -261 31 -315 31 -81 85 -162 132 -196 111 -80 438 -135 569 -96 24
8 112 52 194 98 349 198 365 204 545 204 95 0 150 -6 229 -24 99 -22 106 -23
167 -7 89 21 144 61 181 133 41 78 53 141 53 287 0 175 -24 245 -128 379 -129
164 -546 336 -914 376 -128 14 -344 12 -440 -4z m102 -50 c0 -3 -146 -165
-324 -359 -246 -269 -326 -350 -331 -338 -14 36 -17 161 -5 213 28 121 115
255 215 332 94 71 230 126 370 147 69 10 75 11 75 5z m357 -6 c43 -6 80 -12
81 -14 5 -5 -896 -989 -909 -993 -17 -7 -77 69 -119 150 l-41 79 103 113 c57
62 218 240 358 394 l255 281 97 0 c53 1 132 -4 175 -10z m303 -64 c67 -19 128
-38 135 -43 9 -5 -95 -135 -356 -442 -203 -239 -389 -454 -413 -477 -55 -53
-105 -67 -216 -60 -84 5 -223 35 -218 48 9 21 922 1009 933 1009 7 0 68 -16
135 -35z m302 -116 c94 -47 158 -88 158 -100 0 -11 -359 -457 -383 -478 -9 -7
-20 -11 -24 -8 -40 24 -305 -73 -457 -167 -39 -24 -82 -49 -95 -56 -22 -11
-23 -11 -10 7 37 52 714 843 721 843 5 0 45 -18 90 -41z m285 -231 c47 -72 73
-135 73 -175 0 -55 -77 -155 -145 -187 -18 -9 -52 -16 -76 -16 -48 0 -272 21
-278 26 -2 2 76 103 173 224 201 251 180 240 253 128z m70 -398 c-9 -114 -53
-192 -129 -231 -60 -31 -106 -33 -214 -9 -145 32 -263 37 -360 15 -111 -24
-172 -51 -362 -158 -277 -157 -253 -147 -364 -147 -164 0 -341 44 -420 105
-77 58 -138 205 -138 335 l0 54 46 -74 c25 -41 58 -88 72 -103 89 -95 365
-155 513 -111 80 24 231 94 337 157 112 67 289 142 354 151 26 4 121 1 210 -6
249 -20 293 -18 355 16 29 16 62 39 74 52 12 13 25 24 27 24 3 0 2 -31 -1 -70z"/>
</g>
</svg>
