<?xml version="1.0" standalone="no"?>
<!DOCTYPE svg PUBLIC "-//W3C//DTD SVG 20010904//EN"
 "http://www.w3.org/TR/2001/REC-SVG-20010904/DTD/svg10.dtd">
<svg version="1.0" xmlns="http://www.w3.org/2000/svg"
 width="225.000000pt" height="225.000000pt" viewBox="0 0 225.000000 225.000000"
 preserveAspectRatio="xMidYMid meet">
<metadata>
Created by potrace 1.15, written by Peter Selinger 2001-2017
</metadata>
<g transform="translate(0.000000,225.000000) scale(0.100000,-0.100000)"
fill="#000000" stroke="none">
<path d="M1118 2128 c-29 -47 -41 -91 -40 -156 0 -86 22 -168 83 -317 59 -141
77 -230 60 -291 -17 -62 -62 -117 -135 -165 -36 -24 -66 -49 -66 -57 0 -16 38
-92 47 -92 16 0 105 65 133 96 52 59 73 112 78 194 6 98 -11 163 -87 334 -75
169 -94 234 -95 316 0 50 5 75 24 107 25 45 23 70 -2 31z"/>
<path d="M1461 2005 c-50 -65 -38 -158 43 -320 30 -60 58 -127 61 -147 14 -76
-32 -143 -133 -193 -45 -23 -52 -30 -46 -48 3 -12 13 -30 22 -39 14 -17 18
-16 74 14 73 39 113 86 128 149 16 66 -5 142 -74 266 -30 54 -62 118 -71 142
-22 63 -20 132 6 165 12 15 19 29 16 32 -2 3 -14 -7 -26 -21z"/>
<path d="M711 1919 c-49 -80 -40 -145 40 -308 67 -137 80 -191 55 -239 -22
-43 -71 -86 -128 -113 -40 -19 -47 -26 -42 -43 3 -12 14 -30 24 -40 18 -18 19
-18 65 8 76 45 112 83 130 137 25 73 14 115 -72 286 -65 129 -77 162 -81 214
-4 51 -1 65 18 91 12 16 19 32 16 35 -3 3 -14 -10 -25 -28z"/>
<path d="M1515 1100 c-114 -18 -219 -58 -331 -126 -145 -88 -226 -128 -337
-167 l-92 -32 -240 0 -240 0 -57 -28 c-60 -30 -94 -64 -105 -105 -8 -33 26
-355 39 -363 20 -12 253 -79 363 -104 255 -58 368 -69 680 -69 256 0 305 2
419 22 201 35 357 77 481 131 l50 21 -5 273 c-5 264 -6 274 -30 322 -47 97
-143 171 -270 209 -66 20 -241 29 -325 16z m65 -136 c35 -76 34 -74 16 -74
-24 0 -66 -51 -66 -80 0 -44 82 -100 146 -100 6 0 29 -39 51 -87 64 -139 65
-129 -13 -152 -36 -12 -72 -21 -79 -21 -7 0 -18 20 -24 44 -6 25 -49 146 -96
271 -47 125 -85 231 -85 235 0 7 49 19 113 29 4 0 21 -29 37 -65z m403 -43
c42 -38 76 -101 83 -152 6 -46 -11 -109 -25 -93 -7 7 -119 244 -139 294 -7 19
38 -9 81 -49z m-555 -193 c119 -322 114 -294 46 -303 -31 -4 -60 -3 -64 2 -6
7 -138 369 -167 458 -9 28 -8 32 31 57 23 15 46 27 52 27 7 1 52 -108 102
-241z m-198 -88 c42 -118 76 -218 73 -222 -2 -5 -28 -8 -57 -8 l-52 0 -66 203
-65 202 36 22 c20 11 40 20 44 19 5 -1 44 -98 87 -216z m740 -49 c0 -12 -93
-62 -100 -54 -4 4 -22 42 -40 83 -17 41 -34 80 -36 86 -3 6 8 17 25 23 16 7
38 22 48 33 17 19 18 18 60 -72 24 -51 43 -95 43 -99z m-936 5 c31 -96 56
-177 56 -180 0 -3 -29 -6 -65 -6 l-64 0 -11 40 c-6 22 -28 94 -49 161 l-39
120 26 10 c15 5 36 13 47 18 11 6 25 10 31 10 7 1 37 -77 68 -173z m-219 -28
c25 -78 45 -146 45 -150 0 -9 -60 -10 -111 -2 l-35 6 -36 132 c-20 72 -34 132
-33 134 3 3 84 18 112 21 7 1 31 -57 58 -141z m-480 23 c10 -56 16 -104 13
-107 -13 -12 -129 57 -148 89 -25 40 -25 40 3 72 20 24 94 58 108 50 3 -2 14
-49 24 -104z m193 103 c12 -4 22 -14 22 -24 0 -10 13 -64 30 -121 16 -57 30
-108 30 -112 0 -9 -103 1 -136 13 -17 7 -23 25 -37 107 -10 54 -20 109 -24
121 -5 20 -2 22 43 22 27 0 59 -3 72 -6z"/>
</g>
</svg>
