<?xml version="1.0" standalone="no"?>
<!DOCTYPE svg PUBLIC "-//W3C//DTD SVG 20010904//EN"
 "http://www.w3.org/TR/2001/REC-SVG-20010904/DTD/svg10.dtd">
<svg version="1.0" xmlns="http://www.w3.org/2000/svg"
 width="980.000000pt" height="910.000000pt" viewBox="0 0 980.000000 910.000000"
 preserveAspectRatio="xMidYMid meet">
<metadata>
Created by potrace 1.15, written by Peter Selinger 2001-2017
</metadata>
<g transform="translate(0.000000,910.000000) scale(0.100000,-0.100000)"
fill="#000000" stroke="none">
<path d="M5398 9092 c-14 -6 -3 -16 50 -47 90 -54 115 -97 120 -216 11 -229
-68 -424 -377 -924 -218 -354 -328 -588 -381 -809 -27 -109 -29 -388 -4 -462
59 -179 234 -340 420 -389 89 -23 181 -20 228 8 59 37 96 99 96 164 0 106 -61
175 -193 219 -185 62 -228 185 -147 426 42 125 161 352 303 579 272 436 392
699 442 969 25 136 25 356 0 433 l-19 57 -260 -1 c-144 0 -269 -3 -278 -7z"/>
<path d="M4043 8176 c-40 -13 -93 -36 -118 -50 -37 -22 -45 -32 -45 -57 0 -46
22 -88 88 -167 55 -65 60 -75 47 -89 -9 -8 -15 -33 -15 -57 0 -90 -38 -180
-158 -371 -135 -215 -220 -393 -257 -534 -66 -256 -18 -435 148 -544 77 -51
157 -77 233 -77 81 0 134 25 171 82 24 35 28 52 28 107 0 104 -49 172 -147
207 -58 20 -68 31 -68 73 0 48 46 142 170 347 218 360 280 526 280 753 0 159
-30 241 -116 322 -97 89 -119 94 -241 55z"/>
<path d="M6617 7989 c-114 -32 -187 -81 -187 -126 0 -25 27 -68 90 -143 46
-55 60 -79 55 -94 -3 -12 -10 -47 -16 -79 -18 -106 -67 -210 -200 -425 -49
-78 -104 -173 -123 -210 -41 -83 -92 -234 -107 -320 -16 -92 -7 -235 20 -304
56 -146 251 -271 392 -253 127 17 215 139 179 250 -17 53 -63 100 -140 145
-37 22 -70 47 -74 55 -10 28 51 166 135 305 45 74 95 157 111 184 60 100 130
251 163 350 100 300 59 516 -124 647 -61 44 -77 46 -174 18z"/>
<path d="M3580 5804 c-25 -2 -101 -8 -170 -14 -652 -56 -1184 -250 -1790 -653
-875 -583 -1454 -1279 -1590 -1912 -19 -89 -22 -142 -27 -465 -6 -387 8 -768
32 -902 32 -180 85 -280 222 -415 246 -244 522 -368 943 -425 149 -20 670 -17
850 5 314 39 598 107 995 239 149 49 311 100 360 114 122 33 300 48 465 40
506 -25 880 -150 2070 -696 1180 -541 1554 -671 2044 -710 272 -21 487 -9 646
37 168 48 374 150 513 254 233 175 465 502 602 849 34 86 38 109 47 240 13
183 3 1761 -12 1915 -24 245 -169 558 -372 800 -478 572 -1276 984 -2496 1290
-694 173 -1687 331 -2462 390 -193 15 -771 28 -870 19z m820 -429 c974 -76
2228 -299 2951 -526 1220 -382 1895 -932 2013 -1638 20 -121 21 -356 1 -481
-35 -214 -111 -443 -226 -672 -175 -351 -355 -552 -604 -673 -144 -70 -244
-95 -415 -102 -204 -8 -389 19 -646 97 -300 90 -524 185 -1239 527 -910 436
-1222 571 -1580 686 -420 134 -917 183 -1217 118 -107 -22 -330 -85 -448 -126
-327 -113 -707 -216 -930 -254 -273 -45 -651 -52 -895 -16 -241 36 -452 139
-593 290 -210 225 -227 547 -48 898 162 318 514 690 996 1053 738 558 1272
781 1985 833 171 13 650 5 895 -14z m-250 -3083 c408 -74 783 -222 1795 -707
891 -427 1151 -533 1549 -631 231 -56 335 -69 571 -69 161 0 231 5 300 18 200
41 398 122 553 229 114 79 285 250 377 377 44 60 83 110 88 111 13 0 7 -203
-8 -268 -70 -295 -393 -706 -663 -841 -157 -79 -308 -111 -520 -111 -443 0
-817 121 -1877 605 -1088 497 -1267 570 -1685 691 -335 96 -708 152 -941 140
-202 -10 -346 -44 -802 -190 -527 -169 -766 -227 -1051 -255 -138 -14 -468
-14 -608 -1 -249 24 -491 129 -638 279 -89 91 -136 166 -150 240 -13 71 -13
251 0 251 6 0 66 -25 133 -56 385 -177 693 -226 1232 -194 426 26 702 83 1225
255 300 99 421 136 470 145 25 5 155 7 290 6 195 -3 268 -8 360 -24z"/>
<path d="M5655 4891 c-29 -12 -621 -509 -1397 -1173 -296 -254 -339 -294 -354
-333 -37 -97 18 -218 118 -260 76 -31 107 -22 215 59 282 213 1354 1118 1596
1347 77 73 90 90 97 127 9 52 -3 114 -32 160 -39 63 -171 102 -243 73z"/>
<path d="M6897 4589 c-21 -5 -48 -14 -59 -20 -57 -31 -1543 -1294 -1669 -1419
-75 -74 -84 -162 -26 -249 46 -69 128 -102 211 -87 40 8 115 67 628 498 852
714 1127 954 1144 995 8 18 14 58 14 90 0 99 -48 168 -136 192 -45 12 -54 12
-107 0z"/>
<path d="M1776 4200 c-66 -21 -158 -144 -260 -347 -80 -160 -107 -248 -113
-368 -12 -234 57 -393 215 -499 131 -87 254 -118 467 -119 152 -1 228 10 346
49 130 42 233 115 300 211 96 139 75 458 -49 713 -84 174 -272 289 -564 345
-101 19 -302 28 -342 15z m397 -441 c97 -27 113 -42 154 -146 71 -182 77 -294
16 -322 -42 -19 -163 -24 -303 -12 -148 12 -194 24 -227 57 -22 22 -24 31 -18
72 16 111 94 300 149 361 19 21 27 23 84 17 35 -3 100 -15 145 -27z"/>
<path d="M7975 4145 c-5 -2 -22 -6 -37 -9 -29 -7 -145 -101 -723 -590 -626
-530 -1000 -852 -1023 -880 -47 -61 -36 -164 26 -237 60 -70 141 -95 202 -64
104 54 1276 1033 1667 1393 112 102 130 136 117 210 -8 46 -35 101 -61 124
-33 30 -137 63 -168 53z"/>
</g>
</svg>
